<svg width="30" height="30" viewBox="0 0 30 30" fill="none" xmlns="http://www.w3.org/2000/svg">
<g clip-path="url(#clip0_148_7363)">
<path d="M24.9755 6.75237C23.1408 5.91054 21.1734 5.29031 19.1163 4.93508C19.0788 4.92823 19.0414 4.94536 19.0221 4.97963C18.7691 5.42966 18.4888 6.01676 18.2926 6.47822C16.0801 6.14698 13.8789 6.14698 11.7118 6.47822C11.5155 6.0065 11.225 5.42966 10.9709 4.97963C10.9516 4.9465 10.9141 4.92937 10.8767 4.93508C8.82075 5.28918 6.85333 5.9094 5.01751 6.75237C5.00161 6.75922 4.98799 6.77065 4.97895 6.78549C1.24717 12.3607 0.224876 17.7989 0.726378 23.1696C0.728647 23.1959 0.743397 23.221 0.76382 23.237C3.22594 25.0451 5.61093 26.1428 7.95163 26.8704C7.98909 26.8818 8.02878 26.8681 8.05262 26.8373C8.60632 26.0812 9.09988 25.2839 9.52307 24.4455C9.54805 24.3964 9.52421 24.3381 9.47316 24.3187C8.69028 24.0217 7.94482 23.6596 7.22774 23.2484C7.17102 23.2153 7.16648 23.1342 7.21866 23.0953C7.36956 22.9823 7.5205 22.8646 7.66459 22.7458C7.69066 22.7241 7.72698 22.7195 7.75763 22.7333C12.4685 24.8841 17.5687 24.8841 22.224 22.7333C22.2547 22.7184 22.291 22.723 22.3182 22.7447C22.4623 22.8635 22.6132 22.9823 22.7652 23.0953C22.8174 23.1342 22.814 23.2153 22.7573 23.2484C22.0402 23.6676 21.2948 24.0217 20.5107 24.3175C20.4597 24.337 20.437 24.3964 20.462 24.4455C20.8942 25.2827 21.3878 26.08 21.9313 26.8361C21.954 26.8681 21.9948 26.8818 22.0323 26.8704C24.3843 26.1428 26.7693 25.0451 29.2314 23.237C29.253 23.221 29.2666 23.197 29.2689 23.1707C29.8691 16.9616 28.2636 11.568 25.0129 6.78663C25.005 6.77065 24.9914 6.75922 24.9755 6.75237ZM10.2266 19.8994C8.80826 19.8994 7.63961 18.5973 7.63961 16.9981C7.63961 15.399 8.7856 14.0969 10.2266 14.0969C11.6789 14.0969 12.8362 15.4104 12.8135 16.9981C12.8135 18.5973 11.6675 19.8994 10.2266 19.8994ZM19.7914 19.8994C18.3731 19.8994 17.2045 18.5973 17.2045 16.9981C17.2045 15.399 18.3504 14.0969 19.7914 14.0969C21.2437 14.0969 22.401 15.4104 22.3783 16.9981C22.3783 18.5973 21.2437 19.8994 19.7914 19.8994Z" fill="white"/>
</g>
<defs>
<clipPath id="clip0_148_7363">
<rect x="0.475586" y="0.475586" width="29.049" height="29.049" rx="9.21991" fill="white"/>
</clipPath>
</defs>
</svg>
