<svg width="33" height="33" viewBox="0 0 33 33" fill="none" xmlns="http://www.w3.org/2000/svg">
<g clip-path="url(#clip0_148_7359)">
<path fill-rule="evenodd" clip-rule="evenodd" d="M16.3833 1.448C12.6587 1.44993 9.05629 2.7691 6.22013 5.16963C3.38398 7.57015 1.49905 10.8955 0.902395 14.5511C0.305738 18.2066 1.03625 21.954 2.96333 25.1232C4.89041 28.2923 7.88837 30.6766 11.4212 31.8496C12.2006 31.9943 12.4941 31.5112 12.4941 31.1005C12.4941 30.6898 12.4785 29.4989 12.4733 28.197C8.10875 29.1398 7.18648 26.3552 7.18648 26.3552C6.47463 24.5469 5.44583 24.0716 5.44583 24.0716C4.02214 23.1055 5.55236 23.1236 5.55236 23.1236C7.12933 23.2347 7.95808 24.7329 7.95808 24.7329C9.35579 27.1172 11.629 26.4275 12.5227 26.0245C12.663 25.0145 13.0709 24.3274 13.5203 23.9373C10.0339 23.5446 6.37071 22.2065 6.37071 16.229C6.3491 14.6788 6.92765 13.1796 7.98666 12.0417C7.82558 11.649 7.28779 10.063 8.13993 7.90857C8.13993 7.90857 9.45711 7.49009 12.4552 9.50757C15.0267 8.80833 17.7399 8.80833 20.3114 9.50757C23.3069 7.49009 24.6215 7.90857 24.6215 7.90857C25.4762 10.0578 24.9384 11.6439 24.7773 12.0417C25.8397 13.1798 26.4195 14.6816 26.3959 16.2342C26.3959 22.2246 22.7249 23.5446 19.2333 23.9295C19.7944 24.4152 20.2958 25.3632 20.2958 26.8201C20.2958 28.9074 20.2777 30.5864 20.2777 31.1005C20.2777 31.5164 20.5608 32.002 21.3558 31.8496C24.889 30.6764 27.8873 28.2917 29.8143 25.1221C31.7414 21.9524 32.4715 18.2044 31.8742 14.5485C31.2768 10.8926 29.391 7.56723 26.5539 5.16712C23.7168 2.76701 20.1135 1.44871 16.3885 1.448H16.3833Z" fill="white"/>
<path d="M6.63496 23.8466C6.60119 23.9241 6.47648 23.9474 6.37516 23.8931C6.27384 23.8389 6.19851 23.7381 6.23488 23.658C6.27125 23.578 6.39335 23.5573 6.49467 23.6115C6.596 23.6658 6.67393 23.7691 6.63496 23.8466Z" fill="white"/>
<path d="M7.27205 24.552C7.21825 24.579 7.15669 24.5865 7.09793 24.5733C7.03916 24.5601 6.98684 24.527 6.9499 24.4797C6.84858 24.3712 6.82779 24.2214 6.90573 24.1542C6.98367 24.0871 7.12397 24.1181 7.22529 24.2266C7.32661 24.3351 7.34999 24.4849 7.27205 24.552Z" fill="white"/>
<path d="M7.8902 25.4483C7.79408 25.5155 7.6304 25.4483 7.53947 25.314C7.51432 25.2899 7.49433 25.261 7.48067 25.2291C7.46701 25.1971 7.45996 25.1627 7.45996 25.128C7.45996 25.0933 7.46701 25.0589 7.48067 25.027C7.49433 24.995 7.51432 24.9661 7.53947 24.942C7.63559 24.8775 7.79927 24.942 7.8902 25.0738C7.98113 25.2055 7.98373 25.3812 7.8902 25.4483Z" fill="white"/>
<path d="M8.72969 26.3162C8.64396 26.4117 8.4699 26.3859 8.32701 26.2568C8.18412 26.1276 8.15034 25.9519 8.23607 25.8589C8.3218 25.7659 8.49587 25.7918 8.64395 25.9184C8.79204 26.0449 8.82062 26.2232 8.72969 26.3162Z" fill="white"/>
<path d="M9.90595 26.8226C9.86698 26.9441 9.69032 26.9983 9.51366 26.9466C9.33699 26.895 9.22009 26.7503 9.25386 26.6263C9.28763 26.5023 9.4669 26.4455 9.64616 26.5023C9.82542 26.5592 9.93973 26.6961 9.90595 26.8226Z" fill="white"/>
<path d="M11.19 26.9105C11.19 27.0371 11.0445 27.1455 10.8574 27.1481C10.6704 27.1507 10.5171 27.0474 10.5171 26.9208C10.5171 26.7942 10.6626 26.6857 10.8496 26.6832C11.0367 26.6806 11.19 26.7813 11.19 26.9105Z" fill="white"/>
<path d="M12.3847 26.7113C12.4081 26.8379 12.2782 26.9696 12.0911 27.0006C11.904 27.0316 11.7404 26.9567 11.717 26.8327C11.6936 26.7087 11.8287 26.5744 12.0106 26.5408C12.1924 26.5072 12.3613 26.5847 12.3847 26.7113Z" fill="white"/>
</g>
<defs>
<clipPath id="clip0_148_7359">
<rect x="0.601562" y="0.658203" width="31.575" height="31.575" rx="9.21991" fill="white"/>
</clipPath>
</defs>
</svg>
