<svg width="127" height="37" viewBox="0 0 127 37" fill="none" xmlns="http://www.w3.org/2000/svg">
<path d="M40.5814 9.40776H44.9403C46.3587 9.40776 47.4225 9.7883 48.1316 10.5494C48.8408 11.3105 49.1954 12.4261 49.1954 13.8964V23.0813C49.1954 24.5516 48.8408 25.6672 48.1316 26.4283C47.4225 27.1894 46.3587 27.5699 44.9403 27.5699H40.5814V9.40776ZM44.8884 24.9753C45.3554 24.9753 45.71 24.837 45.9522 24.5602C46.2116 24.2835 46.3414 23.8337 46.3414 23.211V13.7667C46.3414 13.144 46.2116 12.6942 45.9522 12.4175C45.71 12.1407 45.3554 12.0024 44.8884 12.0024H43.4354V24.9753H44.8884ZM51.1219 9.40776H58.9057V12.0024H53.976V16.8024H57.8938V19.397H53.976V24.9753H58.9057V27.5699H51.1219V9.40776ZM59.7952 9.40776H62.6752L64.5433 23.4964H64.5952L66.4633 9.40776H69.0838L66.3336 27.5699H62.5454L59.7952 9.40776ZM70.4547 9.40776H78.005V12.0024H73.3088V17.0618H76.9931V19.6564H73.3088V27.5699H70.4547V9.40776ZM79.3736 9.40776H87.1574V12.0024H82.2277V16.8024H86.1455V19.397H82.2277V24.9753H87.1574V27.5699H79.3736V9.40776ZM92.5603 27.8294C91.1765 27.8294 90.13 27.4402 89.4208 26.6618C88.7116 25.8662 88.357 24.7332 88.357 23.2629V22.2251H91.0554V23.4705C91.0554 24.6467 91.5484 25.2348 92.5343 25.2348C93.0187 25.2348 93.3819 25.0964 93.6241 24.8197C93.8835 24.5256 94.0133 24.0586 94.0133 23.4186C94.0133 22.6575 93.8403 21.9916 93.4943 21.4207C93.1484 20.8326 92.5084 20.1321 91.5743 19.3191C90.3981 18.2813 89.5765 17.3472 89.1095 16.517C88.6424 15.6694 88.4089 14.718 88.4089 13.6629C88.4089 12.2272 88.7722 11.1202 89.4987 10.3418C90.2251 9.54614 91.2803 9.1483 92.6641 9.1483C94.0306 9.1483 95.0597 9.54614 95.7516 10.3418C96.4608 11.1202 96.8154 12.2445 96.8154 13.7148V14.4672H94.117V13.5332C94.117 12.9105 93.996 12.4607 93.7538 12.184C93.5116 11.8899 93.157 11.7429 92.69 11.7429C91.7387 11.7429 91.263 12.3224 91.263 13.4813C91.263 14.1386 91.436 14.7526 91.7819 15.3234C92.1451 15.8943 92.7938 16.5861 93.7279 17.3991C94.9214 18.437 95.743 19.3797 96.1927 20.2272C96.6425 21.0748 96.8673 22.0694 96.8673 23.211C96.8673 24.6986 96.4954 25.8402 95.7516 26.6359C95.0252 27.4316 93.9614 27.8294 92.5603 27.8294ZM100.735 12.0024H97.7513V9.40776H106.573V12.0024H103.589V27.5699H100.735V12.0024ZM114.316 9.40776H118.182L121.139 27.5699H118.285L117.766 23.9635V24.0153H114.523L114.004 27.5699H111.358L114.316 9.40776ZM117.429 21.5505L116.158 12.5732H116.106L114.86 21.5505H117.429ZM122.524 9.40776H125.378V27.5699H122.524V9.40776Z" fill="white"/>
<path d="M15.8501 36.5849V30.5327L21.0538 27.4925V33.5305L15.8501 36.5849Z" fill="#8D6FF5"/>
<path d="M5.55134 6.89178L0.319336 9.88958L0.347617 27.7915L10.7268 33.7871V15.8852L15.8457 18.8264V24.601L21.0494 21.5749V15.8286L5.55134 6.89178Z" fill="#8D6FF5"/>
<path d="M15.9024 0.726807L10.6704 3.7246L26.1402 12.6614V30.5916L31.3722 27.5938V9.66363L15.9024 0.726807Z" fill="#8D6FF5"/>
</svg>
