<svg width="107" height="30" viewBox="0 0 107 30" fill="none" xmlns="http://www.w3.org/2000/svg">
<mask id="mask0_482_17755" style="mask-type:luminance" maskUnits="userSpaceOnUse" x="2" y="9" width="103" height="14">
<path d="M104.178 9.9375H2.37354V22.2077H104.178V9.9375Z" fill="white"/>
</mask>
<g mask="url(#mask0_482_17755)">
<path d="M26.2232 9.9375C27.0715 9.94073 27.9085 10.1326 28.6735 10.4991C29.4386 10.8657 30.1126 11.3978 30.6466 12.0569L29.0154 13.5096C28.674 13.1004 28.2471 12.771 27.7647 12.5447C27.2822 12.3184 26.756 12.2007 26.2232 12.1998C25.7609 12.2052 25.3043 12.3022 24.8797 12.485C24.4551 12.6678 24.0709 12.9329 23.7493 13.2651C23.4277 13.5972 23.175 13.9897 23.006 14.42C22.8369 14.8502 22.7547 15.3097 22.7642 15.7719V15.8315C22.7499 16.2865 22.8254 16.74 22.9865 17.1658C23.1475 17.5917 23.3909 17.9817 23.7028 18.3134C24.0146 18.6452 24.3888 18.9122 24.8039 19.0992C25.219 19.2863 25.6669 19.3897 26.122 19.4036H26.2232C26.7567 19.4032 27.2836 19.2851 27.7663 19.0577C28.2489 18.8302 28.6754 18.4991 29.0154 18.0878L30.6466 19.5524C30.1199 20.2236 29.4487 20.7675 28.6829 21.1437C27.9171 21.5199 27.0764 21.7187 26.2232 21.7254C25.4624 21.7349 24.7073 21.5944 24.0009 21.3119C23.2944 21.0295 22.6506 20.6107 22.106 20.0794C21.5615 19.5481 21.1269 18.9148 20.8271 18.2155C20.5274 17.5163 20.3683 16.7649 20.359 16.0041V15.8136C20.344 15.0568 20.4782 14.3044 20.7541 13.5994C21.0299 12.8945 21.4419 12.2508 21.9666 11.7051C22.4913 11.1594 23.1183 10.7225 23.8119 10.4192C24.5055 10.1159 25.252 9.95221 26.0088 9.9375H26.2232Z" fill="url(#paint0_linear_482_17755)"/>
<path d="M35.1712 10.1396H37.5526V19.2782H41.7796V21.6001H35.1712V10.1396Z" fill="url(#paint1_linear_482_17755)"/>
<path d="M50.0315 10.1396H52.1926L56.7113 21.6001H54.1692L53.4488 19.6831H48.8765L48.0609 21.6001H45.5068L50.0315 10.1396ZM52.6748 17.6113L51.0852 13.4736L49.5016 17.641L52.6748 17.6113Z" fill="url(#paint2_linear_482_17755)"/>
<path d="M61.6168 17.9686C61.8973 18.4418 62.3004 18.8304 62.7835 19.0934C63.2665 19.3564 63.8117 19.4841 64.3613 19.463C65.552 19.463 65.9926 18.8676 65.9926 18.3556C65.9926 17.3435 64.8019 17.0935 63.254 16.5338C61.7061 15.9742 60.6106 15.0693 60.6106 13.1999C60.6106 11.134 62.3431 9.97308 64.3613 9.97308C65.0847 9.94769 65.8021 10.1111 66.4431 10.4473C67.084 10.7834 67.6264 11.2807 68.0168 11.8901L66.3796 13.2713C66.1577 12.9556 65.8624 12.6985 65.5191 12.5222C65.1758 12.3459 64.7949 12.2556 64.409 12.2592C63.4981 12.2592 62.9682 12.6641 62.9682 13.2177C62.9682 14.1822 63.8315 14.2298 65.6116 14.9383C67.5822 15.748 68.3978 16.7244 68.3978 18.3199C68.3978 20.3441 67.1 21.8027 64.3613 21.8027C61.9799 21.8027 60.563 20.6418 59.8903 19.2784L61.6168 17.9686Z" fill="url(#paint3_linear_482_17755)"/>
<path d="M73.8157 17.9684C74.0981 18.4439 74.5042 18.8339 74.9906 19.097C75.477 19.3602 76.0256 19.4865 76.5781 19.4628C77.7688 19.4628 78.2094 18.8674 78.2094 18.3554C78.2094 17.3433 77.0187 17.0933 75.4708 16.5336C73.9229 15.974 72.8215 15.0691 72.8215 13.1997C72.8215 11.1338 74.5539 9.97288 76.5781 9.97288C77.3004 9.94854 78.0167 10.1125 78.6565 10.4486C79.2963 10.7846 79.8378 11.2814 80.2276 11.8899L78.5785 13.2711C78.3566 12.9554 78.0613 12.6983 77.718 12.522C77.3748 12.3457 76.9938 12.2554 76.6079 12.259C75.691 12.259 75.1612 12.6639 75.1612 13.2175C75.1612 14.182 76.0304 14.2296 77.8105 14.9381C79.7811 15.7478 80.5967 16.7242 80.5967 18.3197C80.5967 20.3439 79.2989 21.8025 76.5603 21.8025C74.1789 21.8025 72.756 20.6416 72.0832 19.2782L73.8157 17.9684Z" fill="url(#paint4_linear_482_17755)"/>
<path d="M85.282 10.1396H87.6634V21.6001H85.282V10.1396Z" fill="url(#paint5_linear_482_17755)"/>
<path d="M98.3619 9.9375C99.1205 9.9375 99.8717 10.0871 100.572 10.3778C101.273 10.6684 101.91 11.0944 102.445 11.6314C102.981 12.1684 103.406 12.8057 103.695 13.507C103.984 14.2083 104.132 14.9598 104.131 15.7184V15.8434C104.137 17.1949 103.66 18.5042 102.785 19.5345L103.792 20.7253L102.16 22.1422L101.101 20.88C100.268 21.4102 99.301 21.6893 98.3143 21.6838C96.7684 21.6917 95.2824 21.0864 94.1821 20.0005C93.0817 18.9147 92.4567 17.4369 92.4441 15.891V15.8255C92.4613 14.2641 93.0912 12.7719 94.1982 11.6705C95.3051 10.5692 96.8004 9.94677 98.3619 9.9375ZM98.3619 19.4631C98.7916 19.4622 99.2167 19.3751 99.6122 19.2071L98.2667 17.5401L99.8979 16.0756L101.291 17.7961C101.629 17.2014 101.804 16.5276 101.797 15.8434C101.831 15.3742 101.768 14.9031 101.612 14.4595C101.456 14.0158 101.21 13.6091 100.889 13.2647C100.569 12.9203 100.181 12.6456 99.7497 12.4578C99.3185 12.2699 98.8531 12.173 98.3828 12.173C97.9124 12.173 97.4471 12.2699 97.0158 12.4578C96.5846 12.6456 96.1967 12.9203 95.8763 13.2647C95.5559 13.6091 95.31 14.0158 95.1538 14.4595C94.9976 14.9031 94.9345 15.3742 94.9684 15.8434C94.9214 16.755 95.2378 17.648 95.8483 18.3266C96.4588 19.0051 97.3135 19.4139 98.225 19.4631H98.3619Z" fill="url(#paint6_linear_482_17755)"/>
<path d="M12.2801 21.499C12.5616 21.489 12.8384 21.4236 13.0946 21.3066C13.3508 21.1896 13.5815 21.0232 13.7733 20.8169C13.9652 20.6107 14.1145 20.3686 14.2128 20.1046C14.311 19.8406 14.3563 19.5599 14.3459 19.2784C14.3604 18.7139 14.1515 18.1665 13.7647 17.7551C13.3779 17.3438 12.8444 17.1017 12.2801 17.0815C11.9985 17.0915 11.7218 17.1569 11.4655 17.2739C11.2093 17.3909 10.9787 17.5573 10.7868 17.7636C10.5949 17.9698 10.4456 18.2119 10.3473 18.4759C10.2491 18.7399 10.2038 19.0207 10.2142 19.3022C10.1997 19.8666 10.4086 20.414 10.7954 20.8254C11.1822 21.2367 11.7158 21.4788 12.2801 21.499Z" fill="url(#paint7_linear_482_17755)"/>
<path d="M16.3702 12.1103C16.0337 12.1207 15.7096 12.2392 15.4457 12.4483C15.1819 12.6575 14.9925 12.946 14.9057 13.2713H8.27941V10.6458H2.37354V16.8553H8.27941V14.2298H14.8759C14.9569 14.5629 15.1455 14.8601 15.4124 15.0753C15.6792 15.2906 16.0096 15.4119 16.3524 15.4205C16.7767 15.4019 17.1764 15.2162 17.4642 14.9038C17.752 14.5915 17.9045 14.1779 17.8884 13.7535C17.8983 13.3361 17.7454 12.9312 17.462 12.6245C17.1787 12.3178 16.7871 12.1334 16.3702 12.1103Z" fill="url(#paint8_linear_482_17755)"/>
</g>
<defs>
<linearGradient id="paint0_linear_482_17755" x1="10.2504" y1="9.75" x2="10.1282" y2="22.1422" gradientUnits="userSpaceOnUse">
<stop stop-color="white"/>
<stop offset="1" stop-color="#65616F"/>
</linearGradient>
<linearGradient id="paint1_linear_482_17755" x1="10.2504" y1="9.75" x2="10.1282" y2="22.1422" gradientUnits="userSpaceOnUse">
<stop stop-color="white"/>
<stop offset="1" stop-color="#65616F"/>
</linearGradient>
<linearGradient id="paint2_linear_482_17755" x1="10.2504" y1="9.75" x2="10.1282" y2="22.1422" gradientUnits="userSpaceOnUse">
<stop stop-color="white"/>
<stop offset="1" stop-color="#65616F"/>
</linearGradient>
<linearGradient id="paint3_linear_482_17755" x1="10.2504" y1="9.75" x2="10.1282" y2="22.1422" gradientUnits="userSpaceOnUse">
<stop stop-color="white"/>
<stop offset="1" stop-color="#65616F"/>
</linearGradient>
<linearGradient id="paint4_linear_482_17755" x1="10.2504" y1="9.75" x2="10.1282" y2="22.1422" gradientUnits="userSpaceOnUse">
<stop stop-color="white"/>
<stop offset="1" stop-color="#65616F"/>
</linearGradient>
<linearGradient id="paint5_linear_482_17755" x1="10.2504" y1="9.75" x2="10.1282" y2="22.1422" gradientUnits="userSpaceOnUse">
<stop stop-color="white"/>
<stop offset="1" stop-color="#65616F"/>
</linearGradient>
<linearGradient id="paint6_linear_482_17755" x1="10.2504" y1="9.75" x2="10.1282" y2="22.1422" gradientUnits="userSpaceOnUse">
<stop stop-color="white"/>
<stop offset="1" stop-color="#65616F"/>
</linearGradient>
<linearGradient id="paint7_linear_482_17755" x1="10.2504" y1="9.75" x2="10.1282" y2="22.1422" gradientUnits="userSpaceOnUse">
<stop stop-color="white"/>
<stop offset="1" stop-color="#65616F"/>
</linearGradient>
<linearGradient id="paint8_linear_482_17755" x1="10.2504" y1="9.75" x2="10.1282" y2="22.1422" gradientUnits="userSpaceOnUse">
<stop stop-color="white"/>
<stop offset="1" stop-color="#65616F"/>
</linearGradient>
</defs>
</svg>
