<svg width="142" height="40" viewBox="0 0 142 40" fill="none" xmlns="http://www.w3.org/2000/svg">
<mask id="mask0_482_17533" style="mask-type:luminance" maskUnits="userSpaceOnUse" x="3" y="13" width="137" height="17">
<path d="M139.237 13.25H3.49756V29.6102H139.237V13.25Z" fill="white"/>
</mask>
<g mask="url(#mask0_482_17533)">
<path d="M35.2971 13.25C36.4282 13.2543 37.5442 13.5101 38.5642 13.9989C39.5843 14.4876 40.4829 15.1971 41.195 16.0759L39.02 18.0128C38.5649 17.4672 37.9957 17.028 37.3524 16.7263C36.7092 16.4245 36.0076 16.2676 35.2971 16.2664C34.6807 16.2737 34.0719 16.4029 33.5057 16.6466C32.9396 16.8904 32.4273 17.2439 31.9985 17.6867C31.5697 18.1295 31.2329 18.6529 31.0075 19.2266C30.782 19.8003 30.6725 20.413 30.6851 21.0292V21.1086C30.666 21.7154 30.7667 22.32 30.9815 22.8878C31.1962 23.4556 31.5207 23.9756 31.9365 24.4179C32.3523 24.8602 32.8512 25.2163 33.4047 25.4657C33.9581 25.7151 34.5553 25.853 35.1621 25.8714H35.2971C36.0085 25.871 36.711 25.7135 37.3545 25.4102C37.9981 25.107 38.5667 24.6655 39.02 24.1171L41.195 26.0699C40.4927 26.9648 39.5977 27.69 38.5767 28.1916C37.5556 28.6932 36.4346 28.9583 35.2971 28.9673C34.2828 28.9798 33.2759 28.7925 32.334 28.4159C31.3921 28.0394 30.5336 27.4809 29.8075 26.7726C29.0815 26.0642 28.502 25.2197 28.1024 24.2874C27.7027 23.3551 27.4906 22.3531 27.4781 21.3388V21.0848C27.4581 20.0757 27.6371 19.0725 28.0049 18.1326C28.3727 17.1926 28.9221 16.3344 29.6216 15.6068C30.3212 14.8792 31.1572 14.2966 32.082 13.8922C33.0068 13.4878 34.0022 13.2696 35.0113 13.25H35.2971Z" fill="url(#paint0_linear_482_17533)"/>
<path d="M47.2278 13.5195H50.403V25.7043H56.039V28.8001H47.2278V13.5195Z" fill="url(#paint1_linear_482_17533)"/>
<path d="M67.0415 13.5195H69.923L75.9479 28.8001H72.5584L71.5979 26.2441H65.5015L64.414 28.8001H61.0086L67.0415 13.5195ZM70.566 23.4817L68.4465 17.9648L66.335 23.5214L70.566 23.4817Z" fill="url(#paint2_linear_482_17533)"/>
<path d="M82.4885 23.9582C82.8626 24.589 83.4 25.1072 84.0441 25.4579C84.6882 25.8086 85.4151 25.9788 86.148 25.9506C87.7356 25.9506 88.323 25.1568 88.323 24.4742C88.323 23.1247 86.7354 22.7913 84.6715 22.0451C82.6076 21.299 81.147 20.0924 81.147 17.5998C81.147 14.8454 83.457 13.2974 86.148 13.2974C87.1124 13.2636 88.069 13.4815 88.9236 13.9297C89.7782 14.3779 90.5014 15.0409 91.0219 15.8535L88.8389 17.6951C88.5431 17.2741 88.1494 16.9313 87.6917 16.6962C87.234 16.4612 86.726 16.3408 86.2115 16.3456C84.9969 16.3456 84.2905 16.8854 84.2905 17.6237C84.2905 18.9096 85.4415 18.9731 87.8149 19.9177C90.4424 20.9973 91.5299 22.2991 91.5299 24.4265C91.5299 27.1255 89.7994 29.0703 86.148 29.0703C82.9728 29.0703 81.0835 27.5224 80.1865 25.7045L82.4885 23.9582Z" fill="url(#paint3_linear_482_17533)"/>
<path d="M98.7538 23.9579C99.1304 24.5919 99.6717 25.1119 100.32 25.4627C100.969 25.8135 101.7 25.9821 102.437 25.9504C104.025 25.9504 104.612 25.1566 104.612 24.4739C104.612 23.1244 103.024 22.791 100.961 22.0449C98.8966 21.2987 97.4281 20.0921 97.4281 17.5996C97.4281 14.8451 99.7381 13.2972 102.437 13.2972C103.4 13.2647 104.355 13.4833 105.208 13.9314C106.061 14.3795 106.783 15.0418 107.303 15.8532L105.104 17.6948C104.808 17.2738 104.415 16.9311 103.957 16.696C103.499 16.4609 102.991 16.3406 102.477 16.3454C101.254 16.3454 100.548 16.8852 100.548 17.6234C100.548 18.9093 101.707 18.9729 104.08 19.9175C106.708 20.997 107.795 22.2989 107.795 24.4263C107.795 27.1252 106.065 29.07 102.413 29.07C99.238 29.07 97.3408 27.5221 96.4438 25.7043L98.7538 23.9579Z" fill="url(#paint4_linear_482_17533)"/>
<path d="M114.042 13.5195H117.217V28.8001H114.042V13.5195Z" fill="url(#paint5_linear_482_17533)"/>
<path d="M131.482 13.25C132.494 13.25 133.495 13.4495 134.429 13.837C135.364 14.2246 136.212 14.7926 136.927 15.5085C137.641 16.2245 138.207 17.0743 138.593 18.0094C138.979 18.9444 139.176 19.9464 139.174 20.9578V21.1245C139.183 22.9266 138.546 24.6723 137.38 26.0461L138.722 27.6337L136.547 29.5229L135.134 27.8401C134.024 28.547 132.734 28.919 131.419 28.9117C129.357 28.9223 127.376 28.1152 125.909 26.6674C124.442 25.2196 123.608 23.2492 123.592 21.188V21.1007C123.615 19.0188 124.454 17.0292 125.93 15.5607C127.406 14.0922 129.4 13.2624 131.482 13.25ZM131.482 25.9508C132.055 25.9496 132.622 25.8335 133.149 25.6095L131.355 23.3868L133.53 21.4341L135.388 23.7282C135.839 22.9352 136.072 22.0368 136.062 21.1245C136.108 20.499 136.023 19.8708 135.815 19.2793C135.607 18.6877 135.279 18.1454 134.852 17.6862C134.425 17.227 133.907 16.8608 133.332 16.6103C132.757 16.3599 132.137 16.2307 131.51 16.2307C130.883 16.2307 130.262 16.3599 129.687 16.6103C129.112 16.8608 128.595 17.227 128.168 17.6862C127.741 18.1454 127.413 18.6877 127.205 19.2793C126.996 19.8708 126.912 20.499 126.957 21.1245C126.895 22.3399 127.317 23.5306 128.131 24.4354C128.945 25.3402 130.084 25.8852 131.299 25.9508H131.482Z" fill="url(#paint6_linear_482_17533)"/>
<path d="M16.7063 28.6653C17.0816 28.652 17.4507 28.5649 17.7923 28.4088C18.1339 28.2528 18.4415 28.0309 18.6973 27.7559C18.9531 27.4809 19.1522 27.1582 19.2832 26.8062C19.4142 26.4542 19.4745 26.0798 19.4608 25.7045C19.4801 24.9518 19.2016 24.222 18.6858 23.6735C18.17 23.1251 17.4587 22.8023 16.7063 22.7753C16.3309 22.7887 15.9619 22.8758 15.6202 23.0319C15.2786 23.1879 14.9711 23.4098 14.7152 23.6848C14.4594 23.9598 14.2603 24.2825 14.1293 24.6345C13.9983 24.9865 13.938 25.3609 13.9518 25.7362C13.9325 26.4889 14.211 27.2187 14.7267 27.7672C15.2425 28.3156 15.9539 28.6384 16.7063 28.6653Z" fill="url(#paint7_linear_482_17533)"/>
<path d="M22.1598 16.1471C21.7112 16.1609 21.2789 16.3189 20.9272 16.5978C20.5754 16.8766 20.3229 17.2614 20.2071 17.695H11.3721V14.1944H3.49756V22.4737H11.3721V18.973H20.1674C20.2754 19.4172 20.5268 19.8135 20.8826 20.1004C21.2385 20.3874 21.679 20.5492 22.136 20.5606C22.7018 20.5359 23.2347 20.2882 23.6185 19.8718C24.0022 19.4553 24.2055 18.9039 24.184 18.338C24.1972 17.7814 23.9934 17.2416 23.6156 16.8327C23.2378 16.4237 22.7157 16.1779 22.1598 16.1471Z" fill="url(#paint8_linear_482_17533)"/>
</g>
<defs>
<linearGradient id="paint0_linear_482_17533" x1="14" y1="13" x2="13.8371" y2="29.5229" gradientUnits="userSpaceOnUse">
<stop stop-color="white"/>
<stop offset="1" stop-color="#65616F"/>
</linearGradient>
<linearGradient id="paint1_linear_482_17533" x1="14" y1="13" x2="13.8371" y2="29.5229" gradientUnits="userSpaceOnUse">
<stop stop-color="white"/>
<stop offset="1" stop-color="#65616F"/>
</linearGradient>
<linearGradient id="paint2_linear_482_17533" x1="14" y1="13" x2="13.8371" y2="29.5229" gradientUnits="userSpaceOnUse">
<stop stop-color="white"/>
<stop offset="1" stop-color="#65616F"/>
</linearGradient>
<linearGradient id="paint3_linear_482_17533" x1="14" y1="13" x2="13.8371" y2="29.5229" gradientUnits="userSpaceOnUse">
<stop stop-color="white"/>
<stop offset="1" stop-color="#65616F"/>
</linearGradient>
<linearGradient id="paint4_linear_482_17533" x1="14" y1="13" x2="13.8371" y2="29.5229" gradientUnits="userSpaceOnUse">
<stop stop-color="white"/>
<stop offset="1" stop-color="#65616F"/>
</linearGradient>
<linearGradient id="paint5_linear_482_17533" x1="14" y1="13" x2="13.8371" y2="29.5229" gradientUnits="userSpaceOnUse">
<stop stop-color="white"/>
<stop offset="1" stop-color="#65616F"/>
</linearGradient>
<linearGradient id="paint6_linear_482_17533" x1="14" y1="13" x2="13.8371" y2="29.5229" gradientUnits="userSpaceOnUse">
<stop stop-color="white"/>
<stop offset="1" stop-color="#65616F"/>
</linearGradient>
<linearGradient id="paint7_linear_482_17533" x1="14" y1="13" x2="13.8371" y2="29.5229" gradientUnits="userSpaceOnUse">
<stop stop-color="white"/>
<stop offset="1" stop-color="#65616F"/>
</linearGradient>
<linearGradient id="paint8_linear_482_17533" x1="14" y1="13" x2="13.8371" y2="29.5229" gradientUnits="userSpaceOnUse">
<stop stop-color="white"/>
<stop offset="1" stop-color="#65616F"/>
</linearGradient>
</defs>
</svg>
