<svg width="114" height="30" viewBox="0 0 114 30" fill="none" xmlns="http://www.w3.org/2000/svg">
<path fill-rule="evenodd" clip-rule="evenodd" d="M9.49146 4.47803H18.4734C22.4194 4.47803 25.6183 7.67686 25.6183 11.6228V20.6049C25.6183 24.5508 22.4194 27.7496 18.4734 27.7496H9.49146C5.54551 27.7496 2.34668 24.5508 2.34668 20.6049V11.6228C2.34668 7.67686 5.54551 4.47803 9.49146 4.47803ZM15.7514 10.5182C15.7136 10.4289 15.6471 10.3549 15.5623 10.3079C15.4778 10.261 15.38 10.2436 15.2844 10.2585C15.1889 10.2734 15.1011 10.3199 15.0349 10.3903L8.96138 16.8974C8.90356 16.9591 8.86505 17.0364 8.85061 17.1198C8.83616 17.2031 8.84642 17.2888 8.88008 17.3664C8.91376 17.444 8.96939 17.5101 9.04012 17.5564C9.11086 17.6028 9.19362 17.6275 9.27819 17.6274H13.4818L12.3304 21.8506C12.3056 21.9439 12.3126 22.0428 12.3502 22.1316C12.3879 22.2205 12.4541 22.2944 12.5383 22.3414C12.6226 22.3886 12.7201 22.4062 12.8156 22.3918C12.911 22.3772 12.9989 22.3313 13.0653 22.2613L19.1388 15.7542C19.1966 15.6925 19.2351 15.6152 19.2496 15.5319C19.264 15.4485 19.2537 15.3628 19.2202 15.2852C19.1865 15.2076 19.1307 15.1416 19.0601 15.0952C18.9893 15.0488 18.9065 15.0242 18.822 15.0243H14.6184L15.7706 10.8002C15.7959 10.7067 15.7891 10.6074 15.7514 10.5182Z" fill="url(#paint0_linear_482_17764)"/>
<path d="M35.5613 21.8138C32.7487 21.8138 30.6763 19.6857 30.6763 16.9285C30.6763 14.1714 32.7487 12.0434 35.5613 12.0434C37.3748 12.0434 38.9477 13.0056 39.7063 14.4304L37.6523 15.6332C37.2823 14.8745 36.4865 14.3934 35.5428 14.3934C34.118 14.3934 33.0633 15.4482 33.0633 16.9285C33.0633 18.3904 34.118 19.4451 35.5428 19.4451C36.505 19.4451 37.3008 18.9825 37.6708 18.2238L39.7434 19.4081C38.9477 20.8514 37.3748 21.8138 35.5613 21.8138ZM45.0707 21.8138C42.3506 21.8138 40.1854 19.6857 40.1854 16.9285C40.1854 14.1714 42.3506 12.0434 45.0707 12.0434C47.7909 12.0434 49.9743 14.1714 49.9743 16.9285C49.9743 19.6857 47.7909 21.8138 45.0707 21.8138ZM45.0707 19.4821C46.4956 19.4821 47.5873 18.4274 47.5873 16.9285C47.5873 15.4297 46.4956 14.3749 45.0707 14.3749C43.6644 14.3749 42.5725 15.4297 42.5725 16.9285C42.5725 18.4274 43.6634 19.4821 45.0707 19.4821ZM61.6915 12.0434C63.8009 12.0434 65.1887 13.5422 65.1887 15.8553V21.5547H62.8026V16.0218C62.8026 14.9301 62.2476 14.2639 61.2473 14.2639C60.1926 14.2639 59.5264 14.9671 59.5264 16.3549V21.5547H57.1403V16.0218C57.1403 14.9301 56.5853 14.2639 55.5849 14.2639C54.5672 14.2639 53.8457 14.9671 53.8457 16.3549V21.5547H51.4596V12.3024H53.8457V13.2832C54.3637 12.506 55.2335 12.0434 56.4177 12.0434C57.565 12.0434 58.4161 12.5245 58.9343 13.3757C59.509 12.543 60.4341 12.0434 61.6915 12.0434ZM72.4064 12.0434C74.886 12.0434 76.9216 14.1714 76.9216 16.9285C76.9216 19.6857 74.886 21.8138 72.4064 21.8138C71.0556 21.8138 70.0749 21.3141 69.4087 20.4629V25.2555H67.0217V12.3024H69.4077V13.3942C70.0749 12.543 71.0556 12.0434 72.4064 12.0434ZM71.9623 19.5376C73.4426 19.5376 74.5334 18.4829 74.5334 16.9285C74.5334 15.3742 73.4426 14.3194 71.9623 14.3194C70.5004 14.3194 69.4087 15.3742 69.4087 16.9285C69.4087 18.4829 70.4995 19.5376 71.9623 19.5376ZM82.8136 21.8138C80.0936 21.8138 77.9285 19.6857 77.9285 16.9285C77.9285 14.1714 80.0936 12.0434 82.8136 12.0434C85.5337 12.0434 87.7174 14.1714 87.7174 16.9285C87.7174 19.6857 85.5337 21.8138 82.8136 21.8138ZM82.8136 19.4821C84.2384 19.4821 85.3303 18.4274 85.3303 16.9285C85.3303 15.4297 84.2396 14.3749 82.8136 14.3749C81.4074 14.3749 80.3155 15.4297 80.3155 16.9285C80.3155 18.4274 81.4074 19.4821 82.8136 19.4821ZM91.2059 14.9301C91.2059 16.2994 95.98 15.4482 95.98 18.853C95.98 20.8514 94.2405 21.8138 92.2606 21.8138C90.4101 21.8138 89.0408 21.0365 88.3747 19.6117L90.4471 18.4459C90.7062 19.2046 91.3355 19.6487 92.2606 19.6487C93.0192 19.6487 93.5374 19.3896 93.5374 18.853C93.5374 17.5022 88.7622 18.2423 88.7622 14.9856C88.7622 13.0981 90.3722 12.0434 92.2791 12.0434C93.778 12.0434 95.0733 12.728 95.7949 14.0048L93.7595 15.1151C93.4819 14.523 92.9637 14.1714 92.2791 14.1714C91.6869 14.1714 91.2059 14.4304 91.2059 14.9301ZM98.5045 11.1922C98.1179 11.1881 97.7485 11.0328 97.4752 10.7595C97.202 10.4863 97.0466 10.1168 97.0426 9.73033C97.0426 8.93464 97.7087 8.25 98.5045 8.25C99.3186 8.25 99.9846 8.93464 99.9846 9.73033C99.9846 10.526 99.3186 11.1922 98.5045 11.1922ZM97.32 21.5547V12.3024H99.7072V21.5547H97.32ZM106.101 21.8138C103.381 21.8138 101.216 19.6857 101.216 16.9285C101.216 14.1714 103.381 12.0434 106.101 12.0434C108.821 12.0434 111.005 14.1714 111.005 16.9285C111.005 19.6857 108.821 21.8138 106.101 21.8138ZM106.101 19.4821C107.526 19.4821 108.618 18.4274 108.618 16.9285C108.618 15.4297 107.526 14.3749 106.101 14.3749C104.695 14.3749 103.603 15.4297 103.603 16.9285C103.603 18.4274 104.695 19.4821 106.101 19.4821Z" fill="url(#paint1_linear_482_17764)"/>
<defs>
<linearGradient id="paint0_linear_482_17764" x1="13.9825" y1="1.87463" x2="14.5401" y2="27.5652" gradientUnits="userSpaceOnUse">
<stop stop-color="white"/>
<stop offset="1" stop-color="#65616F"/>
</linearGradient>
<linearGradient id="paint1_linear_482_17764" x1="70.8404" y1="8.25" x2="70.525" y2="27.7451" gradientUnits="userSpaceOnUse">
<stop stop-color="white"/>
<stop offset="1" stop-color="#65616F"/>
</linearGradient>
</defs>
</svg>
