<svg width="152" height="40" viewBox="0 0 152 40" fill="none" xmlns="http://www.w3.org/2000/svg">
<path fill-rule="evenodd" clip-rule="evenodd" d="M12.5454 5.97119H24.5214C29.7826 5.97119 34.0479 10.2363 34.0479 15.4976V27.4736C34.0479 32.7349 29.7826 36.9999 24.5214 36.9999H12.5454C7.28415 36.9999 3.01904 32.7349 3.01904 27.4736V15.4976C3.01904 10.2363 7.28415 5.97119 12.5454 5.97119ZM20.8918 14.0245C20.8415 13.9055 20.7527 13.8068 20.6398 13.7442C20.527 13.6816 20.3966 13.6584 20.2692 13.6783C20.1418 13.6982 20.0247 13.7601 19.9364 13.8541L11.8385 22.5302C11.7614 22.6125 11.71 22.7155 11.6908 22.8267C11.6715 22.9378 11.6852 23.0521 11.7301 23.1556C11.775 23.259 11.8492 23.3471 11.9435 23.4089C12.0378 23.4707 12.1481 23.5036 12.2609 23.5035H17.8657L16.3306 29.1345C16.2975 29.2588 16.3067 29.3907 16.357 29.5092C16.4071 29.6276 16.4954 29.7262 16.6077 29.7889C16.7201 29.8518 16.8501 29.8752 16.9774 29.856C17.1046 29.8366 17.2218 29.7754 17.3104 29.6821L25.4084 21.006C25.4854 20.9237 25.5367 20.8206 25.5561 20.7095C25.5754 20.5984 25.5616 20.484 25.5169 20.3806C25.4719 20.2771 25.3976 20.1891 25.3034 20.1272C25.2091 20.0654 25.0987 20.0325 24.9859 20.0327H19.3812L20.9174 14.4006C20.9511 14.2759 20.9421 14.1435 20.8918 14.0245Z" fill="url(#paint0_linear_482_17542)"/>
<path d="M47.3045 29.085C43.5542 29.085 40.791 26.2476 40.791 22.5714C40.791 18.8952 43.5542 16.0578 47.3045 16.0578C49.7224 16.0578 51.8197 17.3408 52.8311 19.2406L50.0923 20.8443C49.5991 19.8327 48.538 19.1913 47.2798 19.1913C45.38 19.1913 43.9737 20.5976 43.9737 22.5714C43.9737 24.5205 45.38 25.9268 47.2798 25.9268C48.5627 25.9268 49.6237 25.31 50.117 24.2984L52.8805 25.8775C51.8196 27.8019 49.7224 29.085 47.3045 29.085ZM59.9836 29.085C56.3568 29.085 53.4699 26.2476 53.4699 22.5714C53.4699 18.8952 56.3568 16.0578 59.9836 16.0578C63.6105 16.0578 66.5217 18.8952 66.5217 22.5714C66.5217 26.2476 63.6105 29.085 59.9836 29.085ZM59.9836 25.9762C61.8834 25.9762 63.339 24.5698 63.339 22.5714C63.339 20.5729 61.8834 19.1666 59.9836 19.1666C58.1085 19.1666 56.6526 20.5729 56.6526 22.5714C56.6526 24.5698 58.1072 25.9762 59.9836 25.9762ZM82.1446 16.0578C84.9572 16.0578 86.8076 18.0563 86.8076 21.1404V28.7395H83.6262V21.3624C83.6262 19.9068 82.8862 19.0185 81.5524 19.0185C80.1461 19.0185 79.2578 19.9561 79.2578 21.8065V28.7395H76.0764V21.3624C76.0764 19.9068 75.3363 19.0185 74.0026 19.0185C72.6456 19.0185 71.6835 19.9561 71.6835 21.8065V28.7395H68.5021V16.4033H71.6835V17.7109C72.3742 16.6747 73.534 16.0578 75.113 16.0578C76.6426 16.0578 77.7775 16.6993 78.4684 17.8343C79.2346 16.724 80.4682 16.0578 82.1446 16.0578ZM96.4312 16.0578C99.7373 16.0578 102.451 18.8952 102.451 22.5714C102.451 26.2476 99.7373 29.085 96.4312 29.085C94.6301 29.085 93.3226 28.4188 92.4342 27.2838V33.674H89.2515V16.4033H92.433V17.8589C93.3226 16.724 94.6301 16.0578 96.4312 16.0578ZM95.839 26.0502C97.8128 26.0502 99.2672 24.6439 99.2672 22.5714C99.2672 20.4989 97.8128 19.0926 95.839 19.0926C93.8899 19.0926 92.4342 20.4989 92.4342 22.5714C92.4342 24.6439 93.8886 26.0502 95.839 26.0502ZM110.307 29.085C106.681 29.085 103.794 26.2476 103.794 22.5714C103.794 18.8952 106.681 16.0578 110.307 16.0578C113.934 16.0578 116.846 18.8952 116.846 22.5714C116.846 26.2476 113.934 29.085 110.307 29.085ZM110.307 25.9762C112.207 25.9762 113.663 24.5698 113.663 22.5714C113.663 20.5729 112.209 19.1666 110.307 19.1666C108.433 19.1666 106.977 20.5729 106.977 22.5714C106.977 24.5698 108.433 25.9762 110.307 25.9762ZM121.497 19.9068C121.497 21.7325 127.863 20.5976 127.863 25.1373C127.863 27.8019 125.543 29.085 122.903 29.085C120.436 29.085 118.61 28.0486 117.722 26.1489L120.486 24.5945C120.831 25.6061 121.67 26.1982 122.903 26.1982C123.915 26.1982 124.606 25.8528 124.606 25.1373C124.606 23.3362 118.239 24.3231 118.239 19.9808C118.239 17.4642 120.386 16.0578 122.928 16.0578C124.927 16.0578 126.654 16.9707 127.616 18.6731L124.902 20.1535C124.532 19.364 123.841 18.8952 122.928 18.8952C122.139 18.8952 121.497 19.2406 121.497 19.9068ZM131.229 14.9229C130.713 14.9175 130.221 14.7104 129.856 14.3461C129.492 13.9817 129.285 13.489 129.279 12.9738C129.279 11.9129 130.168 11 131.229 11C132.314 11 133.202 11.9129 133.202 12.9738C133.202 14.0347 132.314 14.9229 131.229 14.9229ZM129.649 28.7395V16.4033H132.832V28.7395H129.649ZM141.357 29.085C137.73 29.085 134.844 26.2476 134.844 22.5714C134.844 18.8952 137.73 16.0578 141.357 16.0578C144.984 16.0578 147.895 18.8952 147.895 22.5714C147.895 26.2476 144.984 29.085 141.357 29.085ZM141.357 25.9762C143.257 25.9762 144.713 24.5698 144.713 22.5714C144.713 20.5729 143.257 19.1666 141.357 19.1666C139.482 19.1666 138.026 20.5729 138.026 22.5714C138.026 24.5698 139.482 25.9762 141.357 25.9762Z" fill="url(#paint1_linear_482_17542)"/>
<defs>
<linearGradient id="paint0_linear_482_17542" x1="18.5335" y1="2.5" x2="19.2769" y2="36.754" gradientUnits="userSpaceOnUse">
<stop stop-color="white"/>
<stop offset="1" stop-color="#65616F"/>
</linearGradient>
<linearGradient id="paint1_linear_482_17542" x1="94.3432" y1="11" x2="93.9226" y2="36.9934" gradientUnits="userSpaceOnUse">
<stop stop-color="white"/>
<stop offset="1" stop-color="#65616F"/>
</linearGradient>
</defs>
</svg>
