<svg width="120" height="80" viewBox="0 0 120 80" fill="none" xmlns="http://www.w3.org/2000/svg">
<path d="M24.1887 36.4733C24.5997 36.0624 24.8301 35.5051 24.8301 34.9245C24.8301 34.3439 24.5997 33.7882 24.1887 33.3772L15.8514 25.0414C14.9952 24.1868 13.6098 24.1884 12.7552 25.043C11.9006 25.8976 11.9006 27.2845 12.7552 28.1376L21.0941 36.4733C21.9487 37.3264 23.3341 37.3264 24.1887 36.4733ZM24.0097 28.9019C22.8002 28.9019 21.8195 27.9212 21.8195 26.7133C21.8195 25.5037 22.8002 24.5231 24.0097 24.5231C25.2192 24.5231 26.1983 25.5037 26.1983 26.7133C26.1983 27.9212 25.2192 28.9019 24.0097 28.9019ZM6.27964 59.9536C5.07014 59.9536 4.08946 58.9745 4.08946 57.765C4.08946 56.557 5.07014 55.5764 6.27964 55.5764C7.48759 55.5764 8.46827 56.557 8.46827 57.765C8.46827 58.9745 7.48759 59.9536 6.27964 59.9536ZM22.7037 41.6818C23.5598 42.5364 23.5598 43.9234 22.7053 44.778C21.8491 45.6326 20.4637 45.6341 19.6075 44.778L3.04651 28.2232C2.19192 27.367 2.19192 25.9816 3.04807 25.127C3.90266 24.2709 5.28962 24.2724 6.14421 25.127L22.7037 41.6818ZM21.2607 53.064C21.6701 52.653 21.902 52.0973 21.902 51.5167C21.902 50.936 21.6701 50.3788 21.2607 49.9678L6.49913 35.2094C5.64453 34.3548 4.25757 34.3548 3.40298 35.2094C2.54683 36.064 2.54683 37.4509 3.40298 38.3055L18.163 53.0624C18.5739 53.4718 19.1312 53.7022 19.7118 53.7022C20.2925 53.7022 20.8497 53.4718 21.2607 53.0624V53.064ZM17.1029 55.4954C17.917 56.3562 17.8968 57.709 17.0593 58.5464C16.2203 59.3839 14.8692 59.4041 14.0068 58.59L4.04587 48.6322C3.19128 47.7776 3.19128 46.3922 4.04587 45.5361C4.90202 44.6815 6.28743 44.683 7.14357 45.5376L17.1029 55.4954ZM40.1754 31.4657H38.969V55.5904C38.969 56.431 38.5642 56.8513 37.7501 56.8513H34.9326V60.5918H39.1371C40.4556 60.5918 41.4783 60.2136 42.2068 59.4571C42.9353 58.7005 43.2995 57.6918 43.2995 56.431V31.4657H41.7164C41.2059 31.5404 40.6859 31.5404 40.1754 31.4657ZM49.263 51.5136C50.4959 52.214 51.8968 52.5643 53.4659 52.5643C55.4273 52.5643 56.9139 52.2 57.9226 51.4715C58.9328 50.715 59.6317 49.9164 60.0256 49.0759H60.698V52.186H64.9445V31.4657H60.614V41.9309C60.614 44.1725 60.0676 45.8957 58.9748 47.1005C57.9085 48.2773 56.4936 48.8657 54.7283 48.8657C53.1297 48.8657 51.8828 48.4454 50.9862 47.6048C50.088 46.7362 49.6413 45.4053 49.6413 43.6121V31.4657H45.3107V43.9063C45.3107 45.698 45.6609 47.239 46.3614 48.5295C47.0619 49.8168 48.0286 50.8115 49.263 51.5136ZM67.141 22.7656V52.186H71.4715V22.7656H67.141ZM77.6872 51.4715C79.2578 52.3401 81.0931 52.7744 83.1945 52.7744C85.0734 52.7744 86.6145 52.4802 87.8193 51.8918C89.0257 51.3034 89.9924 50.5749 90.7209 49.7063C91.4774 48.8377 92.0518 48.0111 92.444 47.2266L88.87 45.3773C88.4108 46.3455 87.7524 47.2048 86.9367 47.899C86.1241 48.6276 84.9053 48.9918 83.2786 48.9918C81.5414 48.9918 80.0844 48.4594 78.906 47.3947C77.7572 46.3019 77.1548 44.8449 77.0987 43.0237H93.0325V41.3845C93.0325 39.2831 92.6122 37.4478 91.7716 35.8787C90.931 34.3096 89.7542 33.0908 88.2396 32.2222C86.7545 31.3256 85.0173 30.8772 83.0264 30.8772C80.981 30.8772 79.1737 31.3256 77.6031 32.2222C76.062 33.0908 74.8572 34.3376 73.987 35.9628C73.12 37.5599 72.6841 39.4372 72.6841 41.5947V42.099C72.6841 44.2285 73.12 46.1058 73.987 47.7309C74.8525 49.2953 76.1321 50.5905 77.6872 51.4715ZM88.6178 39.7034H77.1408C77.3649 38.1343 77.9814 36.9154 78.9901 36.0468C80.0283 35.1502 81.3593 34.7019 82.9844 34.7019C84.6111 34.7019 85.928 35.1502 86.9367 36.0468C87.9454 36.9154 88.5073 38.1343 88.6178 39.7034ZM94.0412 31.4657V60.5918H98.3717V49.3701H99.0442C99.3804 49.9305 99.8287 50.4768 100.391 51.0092C100.951 51.5136 101.694 51.9338 102.618 52.2701C103.543 52.6063 104.679 52.7744 106.024 52.7744C107.761 52.7744 109.358 52.3541 110.817 51.5136C112.274 50.673 113.437 49.4681 114.307 47.899C115.174 46.3019 115.61 44.3826 115.61 42.1411V41.5106C115.61 39.2691 115.16 37.3637 114.263 35.7947C113.395 34.1975 112.232 32.9787 110.775 32.1381C109.344 31.2975 107.761 30.8772 106.024 30.8772C104.005 30.8772 102.45 31.2415 101.357 31.97C100.291 32.6985 99.4925 33.5251 98.9601 34.4497H98.2877V31.4657H94.0412ZM109.43 47.1846C108.224 48.3894 106.669 48.9918 104.763 48.9918C102.912 48.9918 101.371 48.3894 100.139 47.1846C98.9321 45.9797 98.3297 44.2565 98.3297 42.015V41.6367C98.3297 39.4232 98.9321 37.714 100.139 36.5092C101.371 35.3043 102.912 34.7019 104.763 34.7019C106.639 34.7019 108.182 35.3043 109.388 36.5092C110.621 37.714 111.237 39.4232 111.237 41.6367V42.015C111.237 44.2565 110.633 45.9797 109.43 47.1846Z" fill="url(#paint0_linear_482_17587)"/>
<path d="M43.3984 26.7133C43.3984 25.5037 42.4176 24.5244 41.208 24.5244C39.9983 24.5244 39.019 25.5037 39.019 26.7133C39.019 27.9214 39.9983 28.9022 41.208 28.9022C42.4176 28.9022 43.3984 27.9214 43.3984 26.7133Z" fill="url(#paint1_linear_482_17587)"/>
<defs>
<linearGradient id="paint0_linear_482_17587" x1="58.8772" y1="25.6165" x2="58.8772" y2="54.4887" gradientUnits="userSpaceOnUse">
<stop stop-color="white"/>
<stop offset="1" stop-color="#65616F"/>
</linearGradient>
<linearGradient id="paint1_linear_482_17587" x1="41.2003" y1="25.9204" x2="41.2327" y2="42.7286" gradientUnits="userSpaceOnUse">
<stop stop-color="white"/>
<stop offset="1" stop-color="#65616F"/>
</linearGradient>
</defs>
</svg>
