<svg width="79" height="52" viewBox="0 0 79 52" fill="none" xmlns="http://www.w3.org/2000/svg">
<path d="M16.5546 24.7077C16.8217 24.4405 16.9714 24.0783 16.9714 23.7009C16.9714 23.3235 16.8217 22.9623 16.5546 22.6952L11.1354 17.2771C10.579 16.7216 9.67846 16.7226 9.12299 17.2781C8.56752 17.8336 8.56752 18.7351 9.12299 19.2895L14.5431 24.7077C15.0986 25.2621 15.9991 25.2621 16.5546 24.7077ZM16.4382 19.7863C15.6521 19.7863 15.0146 19.1489 15.0146 18.3637C15.0146 17.5776 15.6521 16.9402 16.4382 16.9402C17.2244 16.9402 17.8608 17.5776 17.8608 18.3637C17.8608 19.1489 17.2244 19.7863 16.4382 19.7863ZM4.91396 39.9694C4.1278 39.9694 3.49037 39.333 3.49037 38.5469C3.49037 37.7617 4.1278 37.1243 4.91396 37.1243C5.6991 37.1243 6.33653 37.7617 6.33653 38.5469C6.33653 39.333 5.6991 39.9694 4.91396 39.9694ZM15.5893 28.0931C16.1458 28.6486 16.1458 29.5501 15.5903 30.1055C15.0339 30.661 14.1334 30.662 13.5769 30.1055L2.81247 19.3452C2.257 18.7887 2.257 17.8882 2.81348 17.3327C3.36896 16.7762 4.27046 16.7773 4.82593 17.3327L15.5893 28.0931ZM14.6514 35.4913C14.9175 35.2242 15.0683 34.863 15.0683 34.4856C15.0683 34.1082 14.9175 33.7459 14.6514 33.4788L5.05662 23.8861C4.50115 23.3306 3.59964 23.3306 3.04417 23.8861C2.48769 24.4416 2.48769 25.3431 3.04417 25.8985L12.6379 35.4903C12.9051 35.7564 13.2673 35.9061 13.6447 35.9061C14.0221 35.9061 14.3843 35.7564 14.6514 35.4903V35.4913ZM11.9489 37.0717C12.4781 37.6312 12.4649 38.5105 11.9206 39.0548C11.3752 39.5991 10.497 39.6123 9.93647 39.0831L3.46204 32.6107C2.90657 32.0553 2.90657 31.1548 3.46204 30.5983C4.01852 30.0428 4.91901 30.0438 5.4755 30.5993L11.9489 37.0717ZM26.9456 21.4527H26.1615V37.1334C26.1615 37.6798 25.8984 37.953 25.3693 37.953H23.5379V40.3843H26.2708C27.1277 40.3843 27.7925 40.1384 28.266 39.6467C28.7395 39.155 28.9763 38.4993 28.9763 37.6798V21.4527H27.9473C27.6154 21.5013 27.2775 21.5013 26.9456 21.4527ZM32.8524 34.4835C33.6538 34.9388 34.5644 35.1665 35.5843 35.1665C36.8591 35.1665 37.8254 34.9297 38.481 34.4562C39.1377 33.9645 39.592 33.4454 39.8479 32.8991H40.285V34.9206H43.0452V21.4527H40.2304V28.255C40.2304 29.712 39.8753 30.832 39.165 31.6151C38.4719 32.38 37.5522 32.7625 36.4048 32.7625C35.3657 32.7625 34.5553 32.4893 33.9725 31.9429C33.3887 31.3784 33.0983 30.5133 33.0983 29.3477V21.4527H30.2835V29.5389C30.2835 30.7035 30.5112 31.7052 30.9665 32.5439C31.4218 33.3807 32.0501 34.0272 32.8524 34.4835ZM44.4728 15.7979V34.9206H47.2876V15.7979H44.4728ZM51.3277 34.4562C52.3486 35.0208 53.5415 35.3031 54.9074 35.3031C56.1286 35.3031 57.1303 35.1119 57.9134 34.7294C58.6975 34.3469 59.3259 33.8734 59.7994 33.3089C60.2911 32.7443 60.6645 32.207 60.9194 31.6971L58.5964 30.4951C58.2979 31.1244 57.8699 31.6829 57.3397 32.1342C56.8116 32.6077 56.0193 32.8444 54.962 32.8444C53.8329 32.8444 52.8858 32.4984 52.1199 31.8064C51.3732 31.0961 50.9817 30.149 50.9452 28.9653H61.3019V27.8998C61.3019 26.5339 61.0287 25.341 60.4823 24.3211C59.936 23.3013 59.1711 22.509 58.1866 21.9445C57.2213 21.3617 56.0922 21.0703 54.7981 21.0703C53.4686 21.0703 52.2939 21.3617 51.273 21.9445C50.2714 22.509 49.4883 23.3195 48.9227 24.3758C48.3591 25.4139 48.0758 26.6341 48.0758 28.0364V28.3642C48.0758 29.7484 48.3591 30.9686 48.9227 32.0249C49.4852 33.0417 50.3169 33.8835 51.3277 34.4562ZM58.4325 26.8071H50.9725C51.1182 25.7872 51.5189 24.995 52.1745 24.4304C52.8494 23.8476 53.7145 23.5562 54.7708 23.5562C55.8281 23.5562 56.6841 23.8476 57.3397 24.4304C57.9954 24.995 58.3606 25.7872 58.4325 26.8071ZM61.9575 21.4527V40.3843H64.7723V33.0903H65.2094C65.428 33.4546 65.7193 33.8097 66.0846 34.1557C66.4488 34.4835 66.9315 34.7567 67.5325 34.9753C68.1335 35.1938 68.8721 35.3031 69.7463 35.3031C70.8754 35.3031 71.9135 35.0299 72.8616 34.4835C73.8086 33.9372 74.5644 33.1541 75.13 32.1342C75.6935 31.0961 75.9768 29.8485 75.9768 28.3916V27.9818C75.9768 26.5248 75.6844 25.2864 75.1017 24.2665C74.5371 23.2284 73.7813 22.4362 72.8342 21.8898C71.9044 21.3435 70.8754 21.0703 69.7463 21.0703C68.434 21.0703 67.4232 21.307 66.7129 21.7805C66.0198 22.2541 65.5008 22.7913 65.1548 23.3923H64.7177V21.4527H61.9575ZM71.96 31.6698C71.1759 32.4529 70.1651 32.8444 68.9267 32.8444C67.7237 32.8444 66.722 32.4529 65.9207 31.6698C65.1366 30.8866 64.745 29.7666 64.745 28.3096V28.0637C64.745 26.625 65.1366 25.514 65.9207 24.7309C66.722 23.9478 67.7237 23.5562 68.9267 23.5562C70.1459 23.5562 71.1486 23.9478 71.9327 24.7309C72.7341 25.514 73.1347 26.625 73.1347 28.0637V28.3096C73.1347 29.7666 72.7422 30.8866 71.96 31.6698Z" fill="url(#paint0_linear_482_17819)"/>
<path d="M29.0405 18.363C29.0405 17.5768 28.4031 16.9404 27.6169 16.9404C26.8308 16.9404 26.1943 17.5768 26.1943 18.363C26.1943 19.1482 26.8308 19.7856 27.6169 19.7856C28.4031 19.7856 29.0405 19.1482 29.0405 18.363Z" fill="url(#paint1_linear_482_17819)"/>
<defs>
<linearGradient id="paint0_linear_482_17819" x1="39.1015" y1="17.6509" x2="39.1015" y2="36.4173" gradientUnits="userSpaceOnUse">
<stop stop-color="white"/>
<stop offset="1" stop-color="#65616F"/>
</linearGradient>
<linearGradient id="paint1_linear_482_17819" x1="27.6119" y1="17.8477" x2="27.633" y2="28.7713" gradientUnits="userSpaceOnUse">
<stop stop-color="white"/>
<stop offset="1" stop-color="#65616F"/>
</linearGradient>
</defs>
</svg>
