<svg width="85" height="30" viewBox="0 0 85 30" fill="none" xmlns="http://www.w3.org/2000/svg">
<g clip-path="url(#clip0_482_17760)">
<path d="M38.8892 10.9411V8.65888H49.6412V10.9411H45.6332V21.7501H42.8972V10.9411H38.8892ZM52.1042 21.9361C51.4777 21.9361 50.9194 21.8271 50.4294 21.6091C49.9561 21.4014 49.5524 21.0623 49.2662 20.6319C48.9847 20.1969 48.8439 19.6556 48.8439 19.0081C48.8439 18.4626 48.9439 18.0044 49.1439 17.6334C49.3444 17.2629 49.6174 16.9646 49.9629 16.7386C50.3246 16.5056 50.7218 16.3329 51.1389 16.2271C51.5814 16.1121 52.0459 16.0314 52.5324 15.9849C53.1034 15.9249 53.5634 15.8694 53.9124 15.8184C54.2624 15.7629 54.5162 15.6819 54.6737 15.5754C54.8312 15.4689 54.9099 15.3114 54.9099 15.1029V15.0639C54.9099 14.6589 54.7822 14.3456 54.5267 14.1241C54.2752 13.9026 53.9172 13.7919 53.4527 13.7919C52.9627 13.7919 52.5727 13.9006 52.2827 14.1181C52.0053 14.3138 51.8025 14.5978 51.7074 14.9236L49.1897 14.7189C49.305 14.1476 49.5645 13.6152 49.9434 13.1724C50.3184 12.7329 50.8022 12.3961 51.3947 12.1621C51.9912 11.9236 52.6814 11.8044 53.4654 11.8044C54.0104 11.8044 54.5324 11.8681 55.0314 11.9956C55.5339 12.1236 55.9792 12.3219 56.3672 12.5904C56.7597 12.8589 57.0687 13.2039 57.2942 13.6254C57.5202 14.0429 57.6332 14.5439 57.6332 15.1284V21.7501H55.0509V20.3889H54.9744C54.8164 20.6959 54.6054 20.9664 54.3414 21.2004C54.061 21.4398 53.7378 21.624 53.3889 21.7434C53.0184 21.8709 52.5902 21.9356 52.1042 21.9361ZM52.8842 20.0551C53.2842 20.0551 53.6377 19.9764 53.9447 19.8189C54.2517 19.6574 54.4924 19.4399 54.6669 19.1664C54.8429 18.8899 54.9341 18.5679 54.9294 18.2401V17.1976C54.8444 17.2536 54.7272 17.3049 54.5777 17.3514C54.4327 17.3939 54.2687 17.4344 54.0857 17.4729C53.9022 17.5074 53.7189 17.5394 53.5359 17.5689L53.0372 17.6394C52.7497 17.6776 52.4684 17.7527 52.2002 17.8629C51.9816 17.9505 51.7898 18.0937 51.6437 18.2784C51.5117 18.4489 51.4457 18.6619 51.4457 18.9174C51.4457 19.2889 51.5799 19.5724 51.8484 19.7679C52.1214 19.9594 52.4672 20.0551 52.8842 20.0551ZM59.0252 21.7501V11.9326H61.7477V21.7501H59.0252ZM60.3932 10.6666C59.9882 10.6666 59.6407 10.5324 59.3507 10.2639C59.0657 9.99088 58.9232 9.66488 58.9232 9.28588C58.9232 8.91088 59.0657 8.58913 59.3507 8.32063C59.6407 8.04763 59.9882 7.91113 60.3932 7.91113C60.7982 7.91113 61.1432 8.04763 61.4282 8.32063C61.7182 8.58913 61.8632 8.91088 61.8632 9.28588C61.8632 9.66488 61.7182 9.99088 61.4282 10.2639C61.1432 10.5324 60.7982 10.6666 60.3932 10.6666ZM63.2094 25.4319V11.9319H65.8944V13.5811H66.0152C66.1352 13.3171 66.3077 13.0486 66.5327 12.7756C66.7627 12.4981 67.0612 12.2681 67.4282 12.0856C67.7992 11.8981 68.2592 11.8044 68.8082 11.8044C69.5247 11.8044 70.1854 11.9919 70.7904 12.3669C71.3954 12.7374 71.8789 13.2976 72.2409 14.0476C72.6034 14.7936 72.7847 15.7291 72.7847 16.8541C72.7847 17.9491 72.6079 18.8736 72.2544 19.6276C71.9044 20.3776 71.4269 20.9466 70.8219 21.3346C70.2214 21.7181 69.5482 21.9099 68.8022 21.9099C68.2742 21.9099 67.8247 21.8224 67.4537 21.6474C67.1117 21.4914 66.805 21.2677 66.5522 20.9896C66.3348 20.7463 66.154 20.4727 66.0152 20.1774H65.9327V25.4319H63.2094ZM65.8749 16.8414C65.8749 17.4249 65.9559 17.9341 66.1179 18.3691C66.2799 18.8031 66.5142 19.1419 66.8207 19.3854C67.1277 19.6239 67.5007 19.7431 67.9397 19.7431C68.3822 19.7431 68.7572 19.6216 69.0647 19.3786C69.3712 19.1316 69.6034 18.7906 69.7614 18.3556C69.9229 17.9171 70.0037 17.4121 70.0037 16.8406C70.0037 16.2741 69.9249 15.7756 69.7674 15.3451C69.6099 14.9146 69.3777 14.5781 69.0707 14.3356C68.7637 14.0931 68.3867 13.9716 67.9397 13.9711C67.4967 13.9711 67.1217 14.0884 66.8147 14.3229C66.5122 14.5569 66.2797 14.8894 66.1172 15.3204C65.9557 15.7504 65.8749 16.2579 65.8749 16.8414ZM75.2447 25.4311C74.9188 25.4339 74.5934 25.4062 74.2727 25.3486C74.0192 25.3095 73.7707 25.2429 73.5317 25.1499L74.1452 23.1174C74.4652 23.2154 74.7527 23.2686 75.0077 23.2771C75.2677 23.2856 75.4914 23.2259 75.6789 23.0979C75.8704 22.9704 76.0262 22.7531 76.1462 22.4461L76.3059 22.0306L72.7839 11.9311H75.6474L77.6799 19.1416H77.7819L79.8339 11.9311H82.7169L78.9009 22.8106C78.733 23.3103 78.48 23.7771 78.1532 24.1906C77.8402 24.5883 77.4339 24.9026 76.9704 25.1056C76.4934 25.3226 75.9182 25.4311 75.2447 25.4311Z" fill="url(#paint0_linear_482_17760)"/>
<path d="M5.46137 5.93435C5.53799 5.71566 5.68067 5.52617 5.86968 5.39211C6.05869 5.25805 6.2847 5.18604 6.51642 5.18604H31.067C31.1563 5.18606 31.2442 5.20745 31.3235 5.24842C31.4028 5.28939 31.4711 5.34875 31.5228 5.42153C31.5744 5.49431 31.6079 5.57841 31.6204 5.66677C31.6328 5.75514 31.624 5.84522 31.5945 5.92946L30.1615 10.0281C30.0847 10.2468 29.9419 10.4362 29.7527 10.5701C29.5636 10.7041 29.3375 10.7759 29.1057 10.7757H4.55514C4.46584 10.7758 4.37781 10.7545 4.29843 10.7136C4.21906 10.6727 4.15064 10.6133 4.09891 10.5405C4.04719 10.4677 4.01366 10.3836 4.00113 10.2952C3.98861 10.2067 3.99745 10.1166 4.02692 10.0323L5.46137 5.93435ZM11.0511 12.9215C11.1277 12.7028 11.2704 12.5133 11.4594 12.3792C11.6484 12.2452 11.8744 12.1731 12.1061 12.1731H21.7043C21.7935 12.1732 21.8815 12.1946 21.9608 12.2355C22.0401 12.2765 22.1084 12.3359 22.16 12.4086C22.2117 12.4814 22.2451 12.5655 22.2576 12.6539C22.2701 12.7422 22.2613 12.8323 22.2318 12.9166L20.7981 17.0145C20.7215 17.2332 20.5788 17.4227 20.3898 17.5567C20.2007 17.6908 19.9747 17.7628 19.743 17.7628H10.1448C10.0556 17.7628 9.96764 17.7414 9.88835 17.7004C9.80906 17.6595 9.74074 17.6001 9.68909 17.5273C9.63745 17.4545 9.60398 17.3705 9.59149 17.2821C9.579 17.1937 9.58785 17.1036 9.6173 17.0194L11.0511 12.9215ZM14.1568 19.9086C14.2334 19.6899 14.3761 19.5004 14.5651 19.3663C14.7541 19.2323 14.9801 19.1602 15.2119 19.1602H19.2211C19.3103 19.1603 19.3983 19.1817 19.4776 19.2226C19.5568 19.2636 19.6252 19.323 19.6768 19.3957C19.7285 19.4685 19.7619 19.5526 19.7744 19.641C19.7869 19.7294 19.7781 19.8194 19.7486 19.9037L18.3142 24.0023C18.2374 24.2209 18.0947 24.4102 17.9057 24.5441C17.7167 24.6781 17.4907 24.75 17.2591 24.7499H13.2506C13.1613 24.7499 13.0734 24.7285 12.9941 24.6875C12.9148 24.6466 12.8465 24.5872 12.7949 24.5144C12.7432 24.4417 12.7097 24.3576 12.6973 24.2692C12.6848 24.1808 12.6936 24.0907 12.7231 24.0065L14.1568 19.9086Z" fill="url(#paint1_linear_482_17760)"/>
</g>
<defs>
<linearGradient id="paint0_linear_482_17760" x1="60.803" y1="10.1251" x2="60.803" y2="25.4319" gradientUnits="userSpaceOnUse">
<stop stop-color="white"/>
<stop offset="1" stop-color="#65616F"/>
</linearGradient>
<linearGradient id="paint1_linear_482_17760" x1="17.8107" y1="2.99994" x2="17.8107" y2="27.5448" gradientUnits="userSpaceOnUse">
<stop stop-color="white"/>
<stop offset="1" stop-color="#65616F"/>
</linearGradient>
<clipPath id="clip0_482_17760">
<rect width="81.75" height="21.75" fill="white" transform="translate(1.5 3.75)"/>
</clipPath>
</defs>
</svg>
