<svg width="114" height="40" viewBox="0 0 114 40" fill="none" xmlns="http://www.w3.org/2000/svg">
<path d="M52.1846 14.5879V11.5449H66.5206V14.5879H61.1766V28.9999H57.5286V14.5879H52.1846ZM69.8046 29.2479C68.9692 29.2479 68.2249 29.1025 67.5716 28.8119C66.9405 28.5349 66.4022 28.0827 66.0206 27.5089C65.6452 26.9289 65.4576 26.2072 65.4576 25.3439C65.4576 24.6165 65.5909 24.0055 65.8576 23.5109C66.1249 23.0169 66.4889 22.6192 66.9496 22.3179C67.4319 22.0071 67.9614 21.7768 68.5176 21.6359C69.1076 21.4825 69.7269 21.3749 70.3756 21.3129C71.1369 21.2329 71.7502 21.1589 72.2156 21.0909C72.6822 21.0169 73.0206 20.9089 73.2306 20.7669C73.4406 20.6249 73.5456 20.4149 73.5456 20.1369V20.0849C73.5456 19.5449 73.3752 19.1272 73.0346 18.8319C72.6992 18.5365 72.2219 18.3889 71.6026 18.3889C70.9492 18.3889 70.4292 18.5339 70.0426 18.8239C69.6727 19.0848 69.4024 19.4634 69.2756 19.8979L65.9186 19.6249C66.0724 18.8631 66.4183 18.1533 66.9236 17.5629C67.4236 16.9769 68.0686 16.5279 68.8586 16.2159C69.6539 15.8979 70.5742 15.7389 71.6196 15.7389C72.3462 15.7389 73.0422 15.8239 73.7076 15.9939C74.3776 16.1645 74.9712 16.4289 75.4886 16.7869C76.0119 17.1449 76.4239 17.6049 76.7246 18.1669C77.0259 18.7235 77.1766 19.3915 77.1766 20.1709V28.9999H73.7336V27.1849H73.6316C73.4209 27.5942 73.1396 27.9549 72.7876 28.2669C72.4137 28.5861 71.9828 28.8317 71.5176 28.9909C71.0236 29.1609 70.4526 29.2472 69.8046 29.2479ZM70.8446 26.7399C71.3779 26.7399 71.8492 26.6349 72.2586 26.4249C72.6679 26.2095 72.9889 25.9195 73.2216 25.5549C73.4562 25.1861 73.5779 24.7568 73.5716 24.3199V22.9299C73.4582 23.0045 73.3019 23.0729 73.1026 23.1349C72.9092 23.1915 72.6906 23.2455 72.4466 23.2969C72.2019 23.3429 71.9576 23.3855 71.7136 23.4249L71.0486 23.5189C70.6653 23.5698 70.2902 23.67 69.9326 23.8169C69.6412 23.9336 69.3854 24.1246 69.1906 24.3709C69.0146 24.5982 68.9266 24.8822 68.9266 25.2229C68.9266 25.7182 69.1056 26.0962 69.4636 26.3569C69.8276 26.6122 70.2886 26.7399 70.8446 26.7399ZM79.0326 28.9999V15.9099H82.6626V28.9999H79.0326ZM80.8566 14.2219C80.3166 14.2219 79.8532 14.0429 79.4666 13.6849C79.0866 13.3209 78.8966 12.8862 78.8966 12.3809C78.8966 11.8809 79.0866 11.4519 79.4666 11.0939C79.8532 10.7299 80.3166 10.5479 80.8566 10.5479C81.3966 10.5479 81.8566 10.7299 82.2366 11.0939C82.6232 11.4519 82.8166 11.8809 82.8166 12.3809C82.8166 12.8862 82.6232 13.3209 82.2366 13.6849C81.8566 14.0429 81.3966 14.2219 80.8566 14.2219ZM84.6116 33.9089V15.9089H88.1916V18.1079H88.3526C88.5126 17.7559 88.7426 17.3979 89.0426 17.0339C89.3492 16.6639 89.7472 16.3572 90.2366 16.1139C90.7312 15.8639 91.3446 15.7389 92.0766 15.7389C93.0319 15.7389 93.9129 15.9889 94.7196 16.4889C95.5262 16.9829 96.1709 17.7299 96.6536 18.7299C97.1369 19.7245 97.3786 20.9719 97.3786 22.4719C97.3786 23.9319 97.1429 25.1645 96.6716 26.1699C96.2049 27.1699 95.5682 27.9285 94.7616 28.4459C93.9609 28.9572 93.0632 29.2129 92.0686 29.2129C91.3646 29.2129 90.7652 29.0962 90.2706 28.8629C89.8147 28.6549 89.4057 28.3566 89.0686 27.9859C88.7788 27.6614 88.5376 27.2966 88.3526 26.9029H88.2426V33.9089H84.6116ZM88.1656 22.4549C88.1656 23.2329 88.2736 23.9119 88.4896 24.4919C88.7056 25.0705 89.0179 25.5222 89.4266 25.8469C89.8359 26.1649 90.3332 26.3239 90.9186 26.3239C91.5086 26.3239 92.0086 26.1619 92.4186 25.8379C92.8272 25.5085 93.1369 25.0539 93.3476 24.4739C93.5629 23.8892 93.6706 23.2159 93.6706 22.4539C93.6706 21.6985 93.5656 21.0339 93.3556 20.4599C93.1456 19.8859 92.8359 19.4372 92.4266 19.1139C92.0172 18.7905 91.5146 18.6285 90.9186 18.6279C90.3279 18.6279 89.8279 18.7842 89.4186 19.0969C89.0152 19.4089 88.7052 19.8522 88.4886 20.4269C88.2732 21.0002 88.1656 21.6769 88.1656 22.4549ZM100.659 33.9079C100.224 33.9115 99.7902 33.8747 99.3626 33.7979C99.0246 33.7457 98.6933 33.6569 98.3746 33.5329L99.1926 30.8229C99.6192 30.9535 100.003 31.0245 100.343 31.0359C100.689 31.0472 100.988 30.9675 101.238 30.7969C101.493 30.6269 101.701 30.3372 101.861 29.9279L102.074 29.3739L97.3776 15.9079H101.196L103.906 25.5219H104.042L106.778 15.9079H110.622L105.534 30.4139C105.31 31.08 104.972 31.7025 104.537 32.2539C104.119 32.7841 103.578 33.2031 102.96 33.4739C102.324 33.7632 101.557 33.9079 100.659 33.9079Z" fill="url(#paint0_linear_482_17538)"/>
<path d="M7.61402 7.9128C7.71618 7.6212 7.90642 7.36856 8.15844 7.18981C8.41045 7.01106 8.71179 6.91504 9.02076 6.91504H41.7549C41.8739 6.91507 41.9911 6.94359 42.0969 6.99821C42.2026 7.05284 42.2937 7.13199 42.3625 7.22903C42.4314 7.32608 42.476 7.4382 42.4927 7.55602C42.5093 7.67385 42.4975 7.79395 42.4582 7.90628L40.5475 13.3711C40.4451 13.6627 40.2547 13.9152 40.0025 14.0938C39.7503 14.2724 39.4489 14.3682 39.1398 14.368H6.40572C6.28665 14.3681 6.16928 14.3397 6.06344 14.2851C5.9576 14.2305 5.86638 14.1514 5.79741 14.0543C5.72844 13.9573 5.68374 13.8451 5.66704 13.7272C5.65033 13.6093 5.66212 13.4891 5.70142 13.3767L7.61402 7.9128ZM15.0669 17.2289C15.1691 16.9373 15.3593 16.6847 15.6113 16.5059C15.8634 16.3272 16.1647 16.2312 16.4737 16.2312H29.2713C29.3902 16.2312 29.5075 16.2597 29.6132 16.3144C29.7189 16.369 29.81 16.4481 29.8789 16.5452C29.9478 16.6422 29.9924 16.7543 30.009 16.8722C30.0257 16.99 30.0139 17.1101 29.9746 17.2224L28.0629 22.6863C27.9608 22.9779 27.7706 23.2306 27.5185 23.4093C27.2665 23.5881 26.9652 23.6841 26.6562 23.6841H13.8586C13.7396 23.6841 13.6224 23.6555 13.5167 23.6009C13.4109 23.5463 13.3198 23.4671 13.251 23.3701C13.1821 23.2731 13.1375 23.1609 13.1208 23.0431C13.1042 22.9253 13.116 22.8052 13.1553 22.6929L15.0669 17.2289ZM19.208 26.5451C19.3101 26.2535 19.5004 26.0008 19.7524 25.8221C20.0044 25.6433 20.3057 25.5473 20.6147 25.5473H25.9603C26.0793 25.5473 26.1965 25.5759 26.3023 25.6305C26.408 25.6851 26.4991 25.7643 26.5679 25.8613C26.6368 25.9584 26.6814 26.0705 26.6981 26.1883C26.7147 26.3061 26.7029 26.4262 26.6637 26.5386L24.7511 32.0034C24.6488 32.2948 24.4584 32.5473 24.2064 32.7258C23.9544 32.9044 23.6532 33.0003 23.3443 33.0002H17.9997C17.8807 33.0002 17.7634 32.9717 17.6577 32.9171C17.552 32.8624 17.4609 32.7833 17.392 32.6862C17.3231 32.5892 17.2785 32.4771 17.2619 32.3592C17.2452 32.2414 17.257 32.1213 17.2963 32.009L19.208 26.5451Z" fill="url(#paint1_linear_482_17538)"/>
<defs>
<linearGradient id="paint0_linear_482_17538" x1="81.4031" y1="13.4998" x2="81.4031" y2="33.9089" gradientUnits="userSpaceOnUse">
<stop stop-color="white"/>
<stop offset="1" stop-color="#65616F"/>
</linearGradient>
<linearGradient id="paint1_linear_482_17538" x1="24.0798" y1="4.00024" x2="24.0798" y2="36.7267" gradientUnits="userSpaceOnUse">
<stop stop-color="white"/>
<stop offset="1" stop-color="#65616F"/>
</linearGradient>
</defs>
</svg>
