<svg width="130" height="40" viewBox="0 0 130 40" fill="none" xmlns="http://www.w3.org/2000/svg">
<path d="M49.3548 15.0558H44.1187V12.5348H57.4998V15.2497H52.2637V29.4066H49.3548V15.0558Z" fill="url(#paint0_linear_482_17551)"/>
<path d="M63.8996 29.4063C62.736 29.4063 61.5724 29.2123 60.6028 28.6305C59.6331 28.0487 58.8574 27.273 58.2756 26.3034C57.8878 25.3337 57.6938 24.1702 57.6938 22.8126C57.6938 21.4551 57.8878 20.4855 58.4696 19.3219C59.0513 18.3523 59.8271 17.5765 60.7967 16.9947C61.5724 16.6069 62.736 16.219 63.8996 16.219C65.0632 16.219 66.2267 16.413 67.1964 16.9947C68.166 17.5765 68.9418 18.3523 69.5236 19.3219C70.1053 20.2916 70.2993 21.4551 70.2993 22.8126C70.2993 24.1702 70.1053 25.1398 69.5236 26.3034C68.9418 27.273 68.166 28.0487 67.1964 28.6305C66.2267 29.2123 65.2571 29.4063 63.8996 29.4063ZM63.8996 26.8852C64.6753 26.8852 65.2571 26.6912 65.645 26.4973C66.2267 26.1095 66.6146 25.7216 66.8085 25.1398C67.1964 24.558 67.1964 23.7823 67.1964 23.0066C67.1964 22.2309 67.0025 21.4551 66.8085 20.8733C66.4207 20.2916 66.0328 19.7098 65.645 19.5158C65.0632 19.128 64.4814 19.128 63.8996 19.128C63.1239 19.128 62.5421 19.3219 62.1542 19.5158C61.5724 19.9037 61.1846 20.2916 60.9906 20.8733C60.6028 21.4551 60.6028 22.2309 60.6028 23.0066C60.6028 23.7823 60.7967 24.558 60.9906 25.1398C61.3785 25.7216 61.7664 26.3034 62.1542 26.4973C62.736 26.6912 63.3178 26.8852 63.8996 26.8852Z" fill="url(#paint1_linear_482_17551)"/>
<path d="M78.444 29.4063C77.2804 29.4063 76.1169 29.2123 75.1472 28.6305C74.1776 28.0487 73.4018 27.273 72.8201 26.3034C72.2383 25.3337 72.0443 24.1702 72.0443 22.8126C72.0443 21.4551 72.2383 20.4855 72.8201 19.3219C73.4018 18.5462 74.1776 17.7705 75.1472 17.1887C76.1169 16.6069 77.0865 16.219 78.444 16.219C79.6076 16.219 80.7712 16.413 81.7408 16.9947C82.7105 17.5765 83.4862 18.3523 84.068 19.3219C84.4559 20.4855 84.8437 21.6491 84.8437 22.8126C84.8437 24.1702 84.6498 25.1398 84.068 26.3034C83.4862 27.273 82.7105 28.0487 81.7408 28.6305C80.7712 29.2123 79.6076 29.4063 78.444 29.4063ZM78.444 26.8852C79.2197 26.8852 79.8015 26.6912 80.1894 26.4973C80.7712 26.1095 81.159 25.7216 81.353 25.1398C81.7408 24.558 81.7408 23.7823 81.7408 23.0066C81.7408 22.2309 81.5469 21.4551 81.353 20.8733C80.9651 20.2916 80.5773 19.7098 80.1894 19.5158C79.6076 19.128 79.0258 19.128 78.444 19.128C77.6683 19.128 77.0865 19.3219 76.6987 19.5158C76.1169 19.9037 75.729 20.2916 75.5351 20.8733C75.1472 21.4551 75.1472 22.2309 75.1472 23.0066C75.1472 23.7823 75.3411 24.558 75.5351 25.1398C75.9229 25.7216 76.3108 26.3034 76.6987 26.4973C77.0865 26.6912 77.6683 26.8852 78.444 26.8852Z" fill="url(#paint2_linear_482_17551)"/>
<path d="M87.3647 29.2126L86.589 11.3711H89.304V29.2126H87.3647Z" fill="url(#paint3_linear_482_17551)"/>
<path d="M95.7039 29.6005C94.7342 29.6005 93.7646 29.4066 92.9888 29.0188C92.2131 28.6309 91.4376 28.0491 90.8558 27.2734L92.601 25.1402C92.9888 25.7219 93.5706 26.3037 93.9585 26.4977C94.5403 26.8855 95.1221 26.8855 95.7039 26.8855C97.2553 26.8855 98.225 25.9159 98.225 23.7826V15.0558H92.601V12.5348H101.134V23.7826C101.134 25.7219 100.746 27.2734 99.7764 28.243C98.6128 29.0188 97.2553 29.6005 95.7039 29.6005Z" fill="url(#paint4_linear_482_17551)"/>
<path d="M115.097 19.5156C114.515 18.546 113.933 17.7703 112.964 17.1885C111.994 16.6067 111.025 16.4127 109.861 16.4127C108.697 16.4127 107.534 16.6067 106.564 17.1885C105.594 17.7703 104.819 18.546 104.431 19.5156C103.849 20.4853 103.655 21.6489 103.655 23.0064C103.655 24.3639 103.849 25.3335 104.431 26.4971C105.013 27.4667 105.788 28.2425 106.758 28.8243C107.728 29.406 108.891 29.6 110.249 29.6C111.218 29.6 112.188 29.406 112.964 29.0182C113.74 28.6303 114.515 28.0485 114.903 27.4668L113.352 25.5275C112.964 25.9153 112.382 26.3032 111.994 26.4971C111.412 26.691 110.831 26.885 110.249 26.885C109.473 26.885 108.697 26.691 108.116 26.4971C107.534 26.1092 107.146 25.7214 106.758 25.1396C106.564 24.7517 106.37 24.3639 106.37 23.976H115.873C115.873 23.7821 115.873 23.5882 115.873 23.5882C115.873 23.3942 115.873 23.2003 115.873 23.2003C115.873 21.6489 115.485 20.4853 115.097 19.5156ZM106.37 21.8428C106.37 21.4549 106.564 20.8731 106.758 20.4853C107.146 19.9035 107.534 19.5156 107.922 19.1278C108.503 18.7399 109.085 18.7399 109.667 18.7399C110.249 18.7399 111.025 18.9338 111.412 19.1278C111.994 19.5156 112.382 19.9035 112.77 20.4853C112.964 20.8731 113.158 21.261 113.158 21.8428H106.37Z" fill="url(#paint5_linear_482_17551)"/>
<path d="M125.569 28.6306C125.181 29.0184 124.793 29.2124 124.406 29.2124C124.018 29.4063 123.436 29.4063 122.854 29.4063C121.497 29.4063 120.527 29.0184 119.751 28.2427C118.975 27.467 118.588 26.4973 118.588 24.9459V18.9341H116.648V16.6069H118.588V13.698H121.497V16.6069H124.793V18.9341H121.497V24.9459C121.497 25.5277 121.691 26.1095 121.884 26.3034C122.078 26.6913 122.66 26.8852 123.048 26.8852C123.63 26.8852 124.212 26.6913 124.599 26.3034L125.569 28.6306Z" fill="url(#paint6_linear_482_17551)"/>
<path fill-rule="evenodd" clip-rule="evenodd" d="M9.59898 5.97119H32.0948C34.422 5.97119 36.3613 7.91049 36.3613 10.2376V32.7335C36.3613 35.0607 34.422 37 32.0948 37H9.59898C7.27182 37 5.33252 35.0607 5.33252 32.7335V10.2376C5.33252 7.91049 7.27182 5.97119 9.59898 5.97119ZM30.1436 11.8156C30.3451 11.8239 30.5066 11.9854 30.5166 12.1885C30.5399 12.7013 30.5548 13.2074 30.5299 13.6702C30.4417 15.2933 30.0971 16.6868 29.4927 18.1085C28.2891 20.7471 26.6826 22.7781 24.6733 24.4013C24.5389 24.5367 24.4717 24.6721 24.4717 24.8075C24.4717 24.9901 24.4872 25.2094 24.5043 25.4508C24.5251 25.7464 24.5484 26.0753 24.5484 26.4107C24.5484 26.8169 24.545 27.03 24.4717 27.4462C24.272 28.4617 23.8858 29.036 23.1316 29.7236C22.7204 30.0982 22.1927 30.4061 21.6883 30.6692C21.605 30.7125 20.9791 30.9889 20.5829 31.1619C20.428 31.2286 20.2566 31.1153 20.2566 30.9472C20.2582 29.712 20.2582 28.4767 20.2582 27.2431C20.2571 27.1077 20.1899 26.9723 20.0568 26.8369C19.6661 26.4421 19.2877 26.0669 18.9165 25.6987C18.5301 25.3155 18.1514 24.9399 17.7744 24.5578C17.4024 24.1908 17.0361 23.8217 16.663 23.4457C16.2847 23.0644 15.8993 22.676 15.4937 22.2754C15.3582 22.1422 15.2228 22.0751 15.0874 22.074C14.6756 22.074 14.264 22.0738 13.8524 22.0736C13.0295 22.0732 12.2067 22.0729 11.3833 22.074C11.2152 22.0756 11.1019 21.9024 11.1702 21.7493C11.3433 21.3514 11.618 20.7255 11.6613 20.6422C11.926 20.1379 12.2323 19.6101 12.6069 19.2005C13.2961 18.4447 13.8688 18.0585 14.8844 17.8571C15.3022 17.7872 15.5153 17.7822 15.9198 17.7822C16.251 17.7822 16.5763 17.8048 16.8695 17.8252C17.1157 17.8423 17.3392 17.8578 17.5247 17.8571C17.6589 17.8571 17.7938 17.7904 17.9292 17.6573C19.554 15.6479 21.5834 14.0414 24.222 12.8378C25.6438 12.2351 27.0389 11.8905 28.6604 11.8023C29.1249 11.7756 29.6292 11.7906 30.1436 11.8156ZM23.408 18.9242C24.1621 19.6766 25.3807 19.6766 26.1332 18.9242C26.8891 18.17 26.8891 16.9497 26.1332 16.1973C25.3807 15.4431 24.1621 15.4431 23.408 16.1973C22.6555 16.9497 22.6555 18.17 23.408 18.9242Z" fill="url(#paint7_linear_482_17551)"/>
<defs>
<linearGradient id="paint0_linear_482_17551" x1="84.8439" y1="11.3711" x2="84.8439" y2="33.5" gradientUnits="userSpaceOnUse">
<stop stop-color="white"/>
<stop offset="1" stop-color="#65616F"/>
</linearGradient>
<linearGradient id="paint1_linear_482_17551" x1="84.8439" y1="11.3711" x2="84.8439" y2="33.5" gradientUnits="userSpaceOnUse">
<stop stop-color="white"/>
<stop offset="1" stop-color="#65616F"/>
</linearGradient>
<linearGradient id="paint2_linear_482_17551" x1="84.8439" y1="11.3711" x2="84.8439" y2="33.5" gradientUnits="userSpaceOnUse">
<stop stop-color="white"/>
<stop offset="1" stop-color="#65616F"/>
</linearGradient>
<linearGradient id="paint3_linear_482_17551" x1="84.8439" y1="11.3711" x2="84.8439" y2="33.5" gradientUnits="userSpaceOnUse">
<stop stop-color="white"/>
<stop offset="1" stop-color="#65616F"/>
</linearGradient>
<linearGradient id="paint4_linear_482_17551" x1="84.8439" y1="11.3711" x2="84.8439" y2="33.5" gradientUnits="userSpaceOnUse">
<stop stop-color="white"/>
<stop offset="1" stop-color="#65616F"/>
</linearGradient>
<linearGradient id="paint5_linear_482_17551" x1="84.8439" y1="11.3711" x2="84.8439" y2="33.5" gradientUnits="userSpaceOnUse">
<stop stop-color="white"/>
<stop offset="1" stop-color="#65616F"/>
</linearGradient>
<linearGradient id="paint6_linear_482_17551" x1="84.8439" y1="11.3711" x2="84.8439" y2="33.5" gradientUnits="userSpaceOnUse">
<stop stop-color="white"/>
<stop offset="1" stop-color="#65616F"/>
</linearGradient>
<linearGradient id="paint7_linear_482_17551" x1="20.8469" y1="3.5" x2="20.7779" y2="36.8621" gradientUnits="userSpaceOnUse">
<stop stop-color="white"/>
<stop offset="1" stop-color="#65616F"/>
</linearGradient>
</defs>
</svg>
