<svg width="97" height="30" viewBox="0 0 97 30" fill="none" xmlns="http://www.w3.org/2000/svg">
<path d="M36.7664 11.2919H32.8394V9.40107H42.8752V11.4373H38.9481V22.055H36.7664V11.2919Z" fill="url(#paint0_linear_482_17773)"/>
<path d="M47.6751 22.0547C46.8024 22.0547 45.9297 21.9092 45.2025 21.4729C44.4752 21.0366 43.8934 20.4548 43.4571 19.7275C43.1662 19.0003 43.0207 18.1276 43.0207 17.1095C43.0207 16.0913 43.1662 15.3641 43.6025 14.4914C44.0389 13.7642 44.6207 13.1824 45.3479 12.7461C45.9297 12.4552 46.8024 12.1643 47.6751 12.1643C48.5477 12.1643 49.4204 12.3097 50.1477 12.7461C50.8749 13.1824 51.4567 13.7642 51.893 14.4914C52.3294 15.2187 52.4748 16.0913 52.4748 17.1095C52.4748 18.1276 52.3294 18.8548 51.893 19.7275C51.4567 20.4548 50.8749 21.0366 50.1477 21.4729C49.4204 21.9092 48.6932 22.0547 47.6751 22.0547ZM47.6751 20.1639C48.2568 20.1639 48.6932 20.0184 48.9841 19.873C49.4204 19.5821 49.7113 19.2912 49.8568 18.8548C50.1477 18.4185 50.1477 17.8367 50.1477 17.2549C50.1477 16.6731 50.0022 16.0913 49.8568 15.655C49.5659 15.2187 49.275 14.7823 48.9841 14.6369C48.5477 14.346 48.1114 14.346 47.6751 14.346C47.0933 14.346 46.6569 14.4914 46.366 14.6369C45.9297 14.9278 45.6388 15.2187 45.4933 15.655C45.2024 16.0913 45.2025 16.6731 45.2025 17.2549C45.2025 17.8367 45.3479 18.4185 45.4933 18.8548C45.7842 19.2912 46.0751 19.7275 46.366 19.873C46.8024 20.0184 47.2387 20.1639 47.6751 20.1639Z" fill="url(#paint1_linear_482_17773)"/>
<path d="M58.5834 22.0547C57.7107 22.0547 56.838 21.9092 56.1108 21.4729C55.3835 21.0366 54.8018 20.4548 54.3654 19.7275C53.9291 19.0003 53.7836 18.1276 53.7836 17.1095C53.7836 16.0913 53.9291 15.3641 54.3654 14.4914C54.8018 13.9096 55.3835 13.3278 56.1108 12.8915C56.838 12.4552 57.5653 12.1643 58.5834 12.1643C59.4561 12.1643 60.3288 12.3097 61.056 12.7461C61.7832 13.1824 62.365 13.7642 62.8014 14.4914C63.0923 15.3641 63.3832 16.2368 63.3832 17.1095C63.3832 18.1276 63.2377 18.8548 62.8014 19.7275C62.365 20.4548 61.7832 21.0366 61.056 21.4729C60.3288 21.9092 59.4561 22.0547 58.5834 22.0547ZM58.5834 20.1639C59.1652 20.1639 59.6015 20.0184 59.8924 19.873C60.3288 19.5821 60.6196 19.2912 60.7651 18.8548C61.056 18.4185 61.056 17.8367 61.056 17.2549C61.056 16.6731 60.9105 16.0913 60.7651 15.655C60.4742 15.2187 60.1833 14.7823 59.8924 14.6369C59.4561 14.346 59.0197 14.346 58.5834 14.346C58.0016 14.346 57.5653 14.4914 57.2744 14.6369C56.838 14.9278 56.5471 15.2187 56.4017 15.655C56.1108 16.0913 56.1108 16.6731 56.1108 17.2549C56.1108 17.8367 56.2562 18.4185 56.4017 18.8548C56.6926 19.2912 56.9835 19.7275 57.2744 19.873C57.5653 20.0184 58.0016 20.1639 58.5834 20.1639Z" fill="url(#paint2_linear_482_17773)"/>
<path d="M65.2739 21.9094L64.6921 8.52832H66.7284V21.9094H65.2739Z" fill="url(#paint3_linear_482_17773)"/>
<path d="M71.5283 22.2004C70.801 22.2004 70.0738 22.055 69.492 21.7641C68.9102 21.4732 68.3285 21.0368 67.8922 20.455L69.2011 18.8551C69.492 19.2915 69.9283 19.7278 70.2192 19.8732C70.6556 20.1641 71.0919 20.1641 71.5283 20.1641C72.6918 20.1641 73.4191 19.4369 73.4191 17.837V11.2919H69.2011V9.40107H75.6008V17.837C75.6008 19.2915 75.3099 20.455 74.5827 21.1823C73.71 21.7641 72.6918 22.2004 71.5283 22.2004Z" fill="url(#paint4_linear_482_17773)"/>
<path d="M86.0732 14.6367C85.6368 13.9095 85.2005 13.3277 84.4732 12.8913C83.746 12.455 83.0188 12.3096 82.1461 12.3096C81.2734 12.3096 80.4007 12.455 79.6735 12.8913C78.9462 13.3277 78.3644 13.9095 78.0736 14.6367C77.6372 15.364 77.4918 16.2366 77.4918 17.2548C77.4918 18.2729 77.6372 19.0001 78.0736 19.8728C78.5099 20.6001 79.0917 21.1819 79.8189 21.6182C80.5462 22.0545 81.4188 22.2 82.437 22.2C83.1642 22.2 83.8914 22.0545 84.4732 21.7636C85.055 21.4727 85.6368 21.0364 85.9277 20.6001L84.7641 19.1456C84.4732 19.4365 84.0369 19.7274 83.746 19.8728C83.3097 20.0183 82.8733 20.1637 82.437 20.1637C81.8552 20.1637 81.2734 20.0183 80.8371 19.8728C80.4007 19.5819 80.1098 19.291 79.8189 18.8547C79.6735 18.5638 79.528 18.2729 79.528 17.982H86.6549C86.6549 17.8366 86.6549 17.6911 86.6549 17.6911C86.6549 17.5457 86.6549 17.4002 86.6549 17.4002C86.6549 16.2366 86.3641 15.364 86.0732 14.6367ZM79.528 16.3821C79.528 16.0912 79.6735 15.6548 79.8189 15.364C80.1098 14.9276 80.4007 14.6367 80.6916 14.3458C81.1279 14.0549 81.5643 14.0549 82.0006 14.0549C82.437 14.0549 83.0188 14.2004 83.3097 14.3458C83.746 14.6367 84.0369 14.9276 84.3278 15.364C84.4732 15.6548 84.6187 15.9457 84.6187 16.3821H79.528Z" fill="url(#paint5_linear_482_17773)"/>
<path d="M93.9272 21.4729C93.6363 21.7638 93.3454 21.9093 93.0545 21.9093C92.7636 22.0547 92.3273 22.0547 91.8909 22.0547C90.8728 22.0547 90.1456 21.7638 89.5638 21.182C88.982 20.6002 88.6911 19.873 88.6911 18.7094V14.2006H87.2366V12.4552H88.6911V10.2735H90.8728V12.4552H93.3454V14.2006H90.8728V18.7094C90.8728 19.1458 91.0182 19.5821 91.1637 19.7276C91.3091 20.0185 91.7455 20.1639 92.0364 20.1639C92.4727 20.1639 92.9091 20.0185 93.1999 19.7276L93.9272 21.4729Z" fill="url(#paint6_linear_482_17773)"/>
<path fill-rule="evenodd" clip-rule="evenodd" d="M6.94984 4.47852H23.8217C25.5671 4.47852 27.0216 5.93299 27.0216 7.67836V24.5503C27.0216 26.2956 25.5671 27.7501 23.8217 27.7501H6.94984C5.20447 27.7501 3.75 26.2956 3.75 24.5503V7.67836C3.75 5.93299 5.20447 4.47852 6.94984 4.47852ZM22.3583 8.86169C22.5095 8.86793 22.6306 8.98904 22.6381 9.14137C22.6555 9.52593 22.6668 9.9055 22.6481 10.2526C22.5819 11.47 22.3234 12.5151 21.8702 13.5814C20.9675 15.5603 19.7626 17.0836 18.2556 18.301C18.1548 18.4025 18.1044 18.5041 18.1044 18.6056C18.1044 18.7426 18.116 18.907 18.1288 19.0881C18.1445 19.3098 18.1619 19.5564 18.1619 19.808C18.1619 20.1127 18.1594 20.2725 18.1044 20.5846C17.9547 21.3462 17.665 21.777 17.0994 22.2927C16.7909 22.5736 16.3951 22.8046 16.0168 23.0019C15.9544 23.0343 15.485 23.2416 15.1878 23.3715C15.0716 23.4214 14.9431 23.3365 14.9431 23.2104C14.9443 22.2847 14.9443 21.3589 14.9443 20.4345V20.4323C14.9434 20.3308 14.8931 20.2292 14.7932 20.1277C14.5002 19.8316 14.2164 19.5502 13.938 19.274C13.6482 18.9866 13.3641 18.7049 13.0814 18.4184C12.8024 18.1431 12.5277 17.8663 12.2479 17.5842C11.9641 17.2983 11.6751 17.007 11.3709 16.7065C11.2693 16.6067 11.1678 16.5563 11.0662 16.5555C10.7573 16.5555 10.4486 16.5553 10.1399 16.5552C9.52271 16.5549 8.90569 16.5546 8.2881 16.5555C8.16199 16.5567 8.07709 16.4268 8.12828 16.312C8.25813 16.0136 8.46415 15.5441 8.49661 15.4817C8.69513 15.1034 8.92488 14.7076 9.20581 14.4004C9.72272 13.8335 10.1522 13.5439 10.9139 13.3928C11.2273 13.3404 11.3871 13.3366 11.6905 13.3366C11.9389 13.3366 12.1828 13.3536 12.4027 13.3689C12.5874 13.3817 12.755 13.3934 12.8941 13.3928C12.9948 13.3928 13.096 13.3428 13.1976 13.2429C14.4161 11.7359 15.9382 10.531 17.9172 9.62832C18.9834 9.17633 20.0298 8.91787 21.2459 8.8517C21.5943 8.83172 21.9726 8.84296 22.3583 8.86169ZM17.3066 14.1931C17.8722 14.7575 18.7862 14.7575 19.3506 14.1931C19.9174 13.6275 19.9174 12.7123 19.3506 12.148C18.7862 11.5823 17.8722 11.5823 17.3066 12.148C16.7423 12.7123 16.7423 13.6275 17.3066 14.1931Z" fill="url(#paint7_linear_482_17773)"/>
<defs>
<linearGradient id="paint0_linear_482_17773" x1="63.3833" y1="8.52832" x2="63.3833" y2="25.125" gradientUnits="userSpaceOnUse">
<stop stop-color="white"/>
<stop offset="1" stop-color="#65616F"/>
</linearGradient>
<linearGradient id="paint1_linear_482_17773" x1="63.3833" y1="8.52832" x2="63.3833" y2="25.125" gradientUnits="userSpaceOnUse">
<stop stop-color="white"/>
<stop offset="1" stop-color="#65616F"/>
</linearGradient>
<linearGradient id="paint2_linear_482_17773" x1="63.3833" y1="8.52832" x2="63.3833" y2="25.125" gradientUnits="userSpaceOnUse">
<stop stop-color="white"/>
<stop offset="1" stop-color="#65616F"/>
</linearGradient>
<linearGradient id="paint3_linear_482_17773" x1="63.3833" y1="8.52832" x2="63.3833" y2="25.125" gradientUnits="userSpaceOnUse">
<stop stop-color="white"/>
<stop offset="1" stop-color="#65616F"/>
</linearGradient>
<linearGradient id="paint4_linear_482_17773" x1="63.3833" y1="8.52832" x2="63.3833" y2="25.125" gradientUnits="userSpaceOnUse">
<stop stop-color="white"/>
<stop offset="1" stop-color="#65616F"/>
</linearGradient>
<linearGradient id="paint5_linear_482_17773" x1="63.3833" y1="8.52832" x2="63.3833" y2="25.125" gradientUnits="userSpaceOnUse">
<stop stop-color="white"/>
<stop offset="1" stop-color="#65616F"/>
</linearGradient>
<linearGradient id="paint6_linear_482_17773" x1="63.3833" y1="8.52832" x2="63.3833" y2="25.125" gradientUnits="userSpaceOnUse">
<stop stop-color="white"/>
<stop offset="1" stop-color="#65616F"/>
</linearGradient>
<linearGradient id="paint7_linear_482_17773" x1="15.3858" y1="2.62512" x2="15.3341" y2="27.6467" gradientUnits="userSpaceOnUse">
<stop stop-color="white"/>
<stop offset="1" stop-color="#65616F"/>
</linearGradient>
</defs>
</svg>
